<mxfile host="Electron" modified="2024-01-07T10:02:31.019Z" agent="Mozilla/5.0 (Windows NT 10.0; Win64; x64) AppleWebKit/537.36 (KHTML, like Gecko) draw.io/22.1.15 Chrome/120.0.6099.109 Electron/28.1.0 Safari/537.36" etag="O2RphWf_QD-61PmLfkT2" version="22.1.15" type="device">
  <diagram name="Page-1" id="C5f-q9KIwTnNEgcXSA0X">
    <mxGraphModel dx="637" dy="372" grid="1" gridSize="10" guides="1" tooltips="1" connect="1" arrows="1" fold="1" page="1" pageScale="1" pageWidth="1600" pageHeight="1000" math="0" shadow="0">
      <root>
        <mxCell id="0" />
        <mxCell id="1" parent="0" />
        <mxCell id="tLDN3tM3W0mny_JlB2la-1" value="" style="rounded=0;whiteSpace=wrap;html=1;" parent="1" vertex="1">
          <mxGeometry x="1010" y="454.38" width="130" height="70.62" as="geometry" />
        </mxCell>
        <mxCell id="pn1axEp1Zz7bbhyXCy7V-108" style="edgeStyle=orthogonalEdgeStyle;shape=connector;rounded=0;jumpStyle=arc;orthogonalLoop=1;jettySize=auto;html=1;exitX=1;exitY=0.75;exitDx=0;exitDy=0;entryX=1;entryY=0.75;entryDx=0;entryDy=0;labelBackgroundColor=default;strokeColor=default;fontFamily=Helvetica;fontSize=11;fontColor=default;endArrow=none;" parent="1" source="AD1-2I_FPRvKC91VBRbE-305" target="pn1axEp1Zz7bbhyXCy7V-104" edge="1">
          <mxGeometry relative="1" as="geometry">
            <Array as="points">
              <mxPoint x="1475" y="516" />
              <mxPoint x="1500" y="516" />
              <mxPoint x="1500" y="662" />
              <mxPoint x="1200" y="662" />
              <mxPoint x="1200" y="477" />
            </Array>
          </mxGeometry>
        </mxCell>
        <mxCell id="pn1axEp1Zz7bbhyXCy7V-109" style="edgeStyle=orthogonalEdgeStyle;shape=connector;rounded=0;jumpStyle=arc;orthogonalLoop=1;jettySize=auto;html=1;exitX=1;exitY=0.75;exitDx=0;exitDy=0;entryX=1;entryY=0.75;entryDx=0;entryDy=0;labelBackgroundColor=default;strokeColor=default;fontFamily=Helvetica;fontSize=11;fontColor=default;endArrow=none;" parent="1" source="AD1-2I_FPRvKC91VBRbE-306" target="pn1axEp1Zz7bbhyXCy7V-105" edge="1">
          <mxGeometry relative="1" as="geometry">
            <Array as="points">
              <mxPoint x="1475" y="529" />
              <mxPoint x="1490" y="529" />
              <mxPoint x="1490" y="672" />
              <mxPoint x="1180" y="672" />
              <mxPoint x="1180" y="487" />
            </Array>
          </mxGeometry>
        </mxCell>
        <mxCell id="pn1axEp1Zz7bbhyXCy7V-110" style="edgeStyle=orthogonalEdgeStyle;shape=connector;rounded=0;jumpStyle=arc;orthogonalLoop=1;jettySize=auto;html=1;exitX=1;exitY=0.75;exitDx=0;exitDy=0;entryX=1;entryY=0.75;entryDx=0;entryDy=0;labelBackgroundColor=default;strokeColor=default;fontFamily=Helvetica;fontSize=11;fontColor=default;endArrow=none;" parent="1" source="AD1-2I_FPRvKC91VBRbE-307" target="pn1axEp1Zz7bbhyXCy7V-106" edge="1">
          <mxGeometry relative="1" as="geometry">
            <Array as="points">
              <mxPoint x="1480" y="541" />
              <mxPoint x="1480" y="682" />
              <mxPoint x="1160" y="682" />
              <mxPoint x="1160" y="497" />
            </Array>
          </mxGeometry>
        </mxCell>
        <mxCell id="AD1-2I_FPRvKC91VBRbE-1" value="" style="rounded=0;whiteSpace=wrap;html=1;" parent="1" vertex="1">
          <mxGeometry x="370" y="445" width="120" height="205" as="geometry" />
        </mxCell>
        <mxCell id="AD1-2I_FPRvKC91VBRbE-19" value="" style="group;align=right;" parent="1" vertex="1" connectable="0">
          <mxGeometry x="390" y="325" width="60" height="80" as="geometry" />
        </mxCell>
        <mxCell id="AD1-2I_FPRvKC91VBRbE-4" value="" style="rounded=0;whiteSpace=wrap;html=1;" parent="AD1-2I_FPRvKC91VBRbE-19" vertex="1">
          <mxGeometry width="60" height="80" as="geometry" />
        </mxCell>
        <mxCell id="AD1-2I_FPRvKC91VBRbE-6" value="&lt;font style=&quot;font-size: 7px;&quot;&gt;reg 000&lt;/font&gt;" style="text;html=1;strokeColor=none;fillColor=none;align=center;verticalAlign=middle;whiteSpace=wrap;rounded=0;" parent="AD1-2I_FPRvKC91VBRbE-19" vertex="1">
          <mxGeometry x="30" y="60" width="30" height="20" as="geometry" />
        </mxCell>
        <mxCell id="AD1-2I_FPRvKC91VBRbE-95" value="&lt;font style=&quot;font-size: 6px;&quot;&gt;write_en&lt;/font&gt;" style="text;html=1;strokeColor=none;fillColor=none;align=left;verticalAlign=middle;whiteSpace=wrap;rounded=0;" parent="AD1-2I_FPRvKC91VBRbE-19" vertex="1">
          <mxGeometry y="30" width="30" height="10" as="geometry" />
        </mxCell>
        <mxCell id="AD1-2I_FPRvKC91VBRbE-96" value="&lt;font style=&quot;font-size: 6px;&quot;&gt;clk&lt;br&gt;&lt;/font&gt;" style="text;html=1;strokeColor=none;fillColor=none;align=left;verticalAlign=middle;whiteSpace=wrap;rounded=0;" parent="AD1-2I_FPRvKC91VBRbE-19" vertex="1">
          <mxGeometry y="50" width="30" height="10" as="geometry" />
        </mxCell>
        <mxCell id="AD1-2I_FPRvKC91VBRbE-97" value="&lt;font style=&quot;font-size: 6px;&quot;&gt;out_en&lt;br&gt;&lt;/font&gt;" style="text;html=1;strokeColor=none;fillColor=none;align=left;verticalAlign=middle;whiteSpace=wrap;rounded=0;" parent="AD1-2I_FPRvKC91VBRbE-19" vertex="1">
          <mxGeometry y="40" width="30" height="10" as="geometry" />
        </mxCell>
        <mxCell id="AD1-2I_FPRvKC91VBRbE-104" value="&lt;span style=&quot;font-size: 6px;&quot;&gt;reg_in&lt;/span&gt;" style="text;html=1;strokeColor=none;fillColor=none;align=left;verticalAlign=middle;whiteSpace=wrap;rounded=0;" parent="AD1-2I_FPRvKC91VBRbE-19" vertex="1">
          <mxGeometry y="10" width="30" height="10" as="geometry" />
        </mxCell>
        <mxCell id="AD1-2I_FPRvKC91VBRbE-105" value="&lt;span style=&quot;font-size: 6px;&quot;&gt;reg_out&lt;/span&gt;" style="text;html=1;strokeColor=none;fillColor=none;align=right;verticalAlign=middle;whiteSpace=wrap;rounded=0;" parent="AD1-2I_FPRvKC91VBRbE-19" vertex="1">
          <mxGeometry x="30" y="10" width="30" height="10" as="geometry" />
        </mxCell>
        <mxCell id="AD1-2I_FPRvKC91VBRbE-50" value="" style="group;align=right;" parent="1" vertex="1" connectable="0">
          <mxGeometry x="1390" y="408.13" width="85" height="170" as="geometry" />
        </mxCell>
        <mxCell id="AD1-2I_FPRvKC91VBRbE-2" value="" style="shape=trapezoid;perimeter=trapezoidPerimeter;whiteSpace=wrap;html=1;fixedSize=1;rotation=90;" parent="AD1-2I_FPRvKC91VBRbE-50" vertex="1">
          <mxGeometry x="-42.5" y="42.5" width="170" height="85" as="geometry" />
        </mxCell>
        <mxCell id="AD1-2I_FPRvKC91VBRbE-3" value="ALU&lt;br&gt;" style="text;html=1;strokeColor=none;fillColor=none;align=center;verticalAlign=middle;whiteSpace=wrap;rounded=0;" parent="AD1-2I_FPRvKC91VBRbE-50" vertex="1">
          <mxGeometry y="63.75" width="85" height="42.5" as="geometry" />
        </mxCell>
        <mxCell id="AD1-2I_FPRvKC91VBRbE-305" value="&lt;span style=&quot;font-size: 7px;&quot;&gt;ge&lt;/span&gt;" style="text;html=1;strokeColor=none;fillColor=none;align=right;verticalAlign=middle;whiteSpace=wrap;rounded=0;fontSize=11;fontFamily=Helvetica;fontColor=default;" parent="AD1-2I_FPRvKC91VBRbE-50" vertex="1">
          <mxGeometry x="60" y="97.5" width="25" height="12.5" as="geometry" />
        </mxCell>
        <mxCell id="AD1-2I_FPRvKC91VBRbE-306" value="&lt;span style=&quot;font-size: 7px;&quot;&gt;lt&lt;/span&gt;" style="text;html=1;strokeColor=none;fillColor=none;align=right;verticalAlign=middle;whiteSpace=wrap;rounded=0;fontSize=11;fontFamily=Helvetica;fontColor=default;" parent="AD1-2I_FPRvKC91VBRbE-50" vertex="1">
          <mxGeometry x="60" y="110" width="25" height="12.5" as="geometry" />
        </mxCell>
        <mxCell id="AD1-2I_FPRvKC91VBRbE-307" value="&lt;span style=&quot;font-size: 7px;&quot;&gt;eq&lt;/span&gt;" style="text;html=1;strokeColor=none;fillColor=none;align=right;verticalAlign=middle;whiteSpace=wrap;rounded=0;fontSize=11;fontFamily=Helvetica;fontColor=default;" parent="AD1-2I_FPRvKC91VBRbE-50" vertex="1">
          <mxGeometry x="60" y="122.5" width="25" height="12.5" as="geometry" />
        </mxCell>
        <mxCell id="hdAm_U4ZvtJkM7ybA8hB-8" value="b" style="text;html=1;strokeColor=none;fillColor=none;align=left;verticalAlign=middle;whiteSpace=wrap;rounded=0;fontSize=7;fontFamily=Helvetica;fontColor=default;" parent="AD1-2I_FPRvKC91VBRbE-50" vertex="1">
          <mxGeometry y="83.75" width="10" height="13.75" as="geometry" />
        </mxCell>
        <mxCell id="hdAm_U4ZvtJkM7ybA8hB-17" value="a" style="text;html=1;strokeColor=none;fillColor=none;align=left;verticalAlign=middle;whiteSpace=wrap;rounded=0;fontSize=7;fontFamily=Helvetica;fontColor=default;" parent="AD1-2I_FPRvKC91VBRbE-50" vertex="1">
          <mxGeometry y="42.5" width="10" height="13.75" as="geometry" />
        </mxCell>
        <mxCell id="tiuVRjCa3sRhHjP37GoX-111" value="adder_in_a2" style="text;html=1;strokeColor=none;fillColor=none;align=left;verticalAlign=middle;whiteSpace=wrap;rounded=0;fontSize=7;fontFamily=Helvetica;fontColor=default;" vertex="1" parent="AD1-2I_FPRvKC91VBRbE-50">
          <mxGeometry y="121.25" width="70" height="13.75" as="geometry" />
        </mxCell>
        <mxCell id="AD1-2I_FPRvKC91VBRbE-106" value="" style="group;align=right;" parent="1" vertex="1" connectable="0">
          <mxGeometry x="630" y="595" width="60" height="80" as="geometry" />
        </mxCell>
        <mxCell id="AD1-2I_FPRvKC91VBRbE-107" value="" style="rounded=0;whiteSpace=wrap;html=1;" parent="AD1-2I_FPRvKC91VBRbE-106" vertex="1">
          <mxGeometry width="60" height="80" as="geometry" />
        </mxCell>
        <mxCell id="AD1-2I_FPRvKC91VBRbE-108" value="&lt;font style=&quot;font-size: 7px;&quot;&gt;PC&lt;/font&gt;" style="text;html=1;strokeColor=none;fillColor=none;align=center;verticalAlign=middle;whiteSpace=wrap;rounded=0;" parent="AD1-2I_FPRvKC91VBRbE-106" vertex="1">
          <mxGeometry x="30" y="60" width="30" height="20" as="geometry" />
        </mxCell>
        <mxCell id="AD1-2I_FPRvKC91VBRbE-109" value="&lt;font style=&quot;font-size: 6px;&quot;&gt;write_en&lt;/font&gt;" style="text;html=1;strokeColor=none;fillColor=none;align=left;verticalAlign=middle;whiteSpace=wrap;rounded=0;" parent="AD1-2I_FPRvKC91VBRbE-106" vertex="1">
          <mxGeometry y="30" width="30" height="10" as="geometry" />
        </mxCell>
        <mxCell id="AD1-2I_FPRvKC91VBRbE-110" value="&lt;font style=&quot;font-size: 6px;&quot;&gt;clk&lt;br&gt;&lt;/font&gt;" style="text;html=1;strokeColor=none;fillColor=none;align=left;verticalAlign=middle;whiteSpace=wrap;rounded=0;" parent="AD1-2I_FPRvKC91VBRbE-106" vertex="1">
          <mxGeometry y="50" width="30" height="10" as="geometry" />
        </mxCell>
        <mxCell id="AD1-2I_FPRvKC91VBRbE-111" value="&lt;font style=&quot;font-size: 6px;&quot;&gt;out_en&lt;br&gt;&lt;/font&gt;" style="text;html=1;strokeColor=none;fillColor=none;align=left;verticalAlign=middle;whiteSpace=wrap;rounded=0;" parent="AD1-2I_FPRvKC91VBRbE-106" vertex="1">
          <mxGeometry y="40" width="30" height="10" as="geometry" />
        </mxCell>
        <mxCell id="AD1-2I_FPRvKC91VBRbE-112" value="&lt;span style=&quot;font-size: 6px;&quot;&gt;reg_in&lt;/span&gt;" style="text;html=1;strokeColor=none;fillColor=none;align=left;verticalAlign=middle;whiteSpace=wrap;rounded=0;" parent="AD1-2I_FPRvKC91VBRbE-106" vertex="1">
          <mxGeometry y="10" width="30" height="10" as="geometry" />
        </mxCell>
        <mxCell id="AD1-2I_FPRvKC91VBRbE-113" value="&lt;span style=&quot;font-size: 6px;&quot;&gt;reg_out&lt;/span&gt;" style="text;html=1;strokeColor=none;fillColor=none;align=right;verticalAlign=middle;whiteSpace=wrap;rounded=0;" parent="AD1-2I_FPRvKC91VBRbE-106" vertex="1">
          <mxGeometry x="30" y="10" width="30" height="10" as="geometry" />
        </mxCell>
        <mxCell id="tiuVRjCa3sRhHjP37GoX-15" value="&lt;span style=&quot;font-size: 6px;&quot;&gt;bypass_out&lt;/span&gt;" style="text;html=1;strokeColor=none;fillColor=none;align=right;verticalAlign=middle;whiteSpace=wrap;rounded=0;" vertex="1" parent="AD1-2I_FPRvKC91VBRbE-106">
          <mxGeometry x="30" y="20" width="30" height="10" as="geometry" />
        </mxCell>
        <mxCell id="AD1-2I_FPRvKC91VBRbE-122" value="" style="group;align=right;" parent="1" vertex="1" connectable="0">
          <mxGeometry x="510" y="325" width="60" height="80" as="geometry" />
        </mxCell>
        <mxCell id="AD1-2I_FPRvKC91VBRbE-123" value="" style="rounded=0;whiteSpace=wrap;html=1;" parent="AD1-2I_FPRvKC91VBRbE-122" vertex="1">
          <mxGeometry width="60" height="80" as="geometry" />
        </mxCell>
        <mxCell id="AD1-2I_FPRvKC91VBRbE-124" value="&lt;font style=&quot;font-size: 7px;&quot;&gt;reg 001&lt;/font&gt;" style="text;html=1;strokeColor=none;fillColor=none;align=center;verticalAlign=middle;whiteSpace=wrap;rounded=0;" parent="AD1-2I_FPRvKC91VBRbE-122" vertex="1">
          <mxGeometry x="30" y="60" width="30" height="20" as="geometry" />
        </mxCell>
        <mxCell id="AD1-2I_FPRvKC91VBRbE-125" value="&lt;font style=&quot;font-size: 6px;&quot;&gt;write_en&lt;/font&gt;" style="text;html=1;strokeColor=none;fillColor=none;align=left;verticalAlign=middle;whiteSpace=wrap;rounded=0;" parent="AD1-2I_FPRvKC91VBRbE-122" vertex="1">
          <mxGeometry y="30" width="30" height="10" as="geometry" />
        </mxCell>
        <mxCell id="AD1-2I_FPRvKC91VBRbE-126" value="&lt;font style=&quot;font-size: 6px;&quot;&gt;clk&lt;br&gt;&lt;/font&gt;" style="text;html=1;strokeColor=none;fillColor=none;align=left;verticalAlign=middle;whiteSpace=wrap;rounded=0;" parent="AD1-2I_FPRvKC91VBRbE-122" vertex="1">
          <mxGeometry y="50" width="30" height="10" as="geometry" />
        </mxCell>
        <mxCell id="AD1-2I_FPRvKC91VBRbE-127" value="&lt;font style=&quot;font-size: 6px;&quot;&gt;out_en&lt;br&gt;&lt;/font&gt;" style="text;html=1;strokeColor=none;fillColor=none;align=left;verticalAlign=middle;whiteSpace=wrap;rounded=0;" parent="AD1-2I_FPRvKC91VBRbE-122" vertex="1">
          <mxGeometry y="40" width="30" height="10" as="geometry" />
        </mxCell>
        <mxCell id="AD1-2I_FPRvKC91VBRbE-129" value="&lt;span style=&quot;font-size: 6px;&quot;&gt;reg_out&lt;/span&gt;" style="text;html=1;strokeColor=none;fillColor=none;align=right;verticalAlign=middle;whiteSpace=wrap;rounded=0;" parent="AD1-2I_FPRvKC91VBRbE-122" vertex="1">
          <mxGeometry x="30" y="10" width="30" height="10" as="geometry" />
        </mxCell>
        <mxCell id="AD1-2I_FPRvKC91VBRbE-128" value="&lt;span style=&quot;font-size: 6px;&quot;&gt;reg_in&lt;/span&gt;" style="text;html=1;strokeColor=none;fillColor=none;align=left;verticalAlign=middle;whiteSpace=wrap;rounded=0;" parent="AD1-2I_FPRvKC91VBRbE-122" vertex="1">
          <mxGeometry y="10" width="30" height="10" as="geometry" />
        </mxCell>
        <mxCell id="AD1-2I_FPRvKC91VBRbE-130" value="" style="group;align=right;" parent="1" vertex="1" connectable="0">
          <mxGeometry x="630" y="325" width="60" height="80" as="geometry" />
        </mxCell>
        <mxCell id="AD1-2I_FPRvKC91VBRbE-131" value="" style="rounded=0;whiteSpace=wrap;html=1;" parent="AD1-2I_FPRvKC91VBRbE-130" vertex="1">
          <mxGeometry width="60" height="80" as="geometry" />
        </mxCell>
        <mxCell id="AD1-2I_FPRvKC91VBRbE-132" value="&lt;font style=&quot;font-size: 7px;&quot;&gt;reg 010&lt;/font&gt;" style="text;html=1;strokeColor=none;fillColor=none;align=center;verticalAlign=middle;whiteSpace=wrap;rounded=0;" parent="AD1-2I_FPRvKC91VBRbE-130" vertex="1">
          <mxGeometry x="30" y="60" width="30" height="20" as="geometry" />
        </mxCell>
        <mxCell id="AD1-2I_FPRvKC91VBRbE-133" value="&lt;font style=&quot;font-size: 6px;&quot;&gt;write_en&lt;/font&gt;" style="text;html=1;strokeColor=none;fillColor=none;align=left;verticalAlign=middle;whiteSpace=wrap;rounded=0;" parent="AD1-2I_FPRvKC91VBRbE-130" vertex="1">
          <mxGeometry y="30" width="30" height="10" as="geometry" />
        </mxCell>
        <mxCell id="AD1-2I_FPRvKC91VBRbE-134" value="&lt;font style=&quot;font-size: 6px;&quot;&gt;clk&lt;br&gt;&lt;/font&gt;" style="text;html=1;strokeColor=none;fillColor=none;align=left;verticalAlign=middle;whiteSpace=wrap;rounded=0;" parent="AD1-2I_FPRvKC91VBRbE-130" vertex="1">
          <mxGeometry y="50" width="30" height="10" as="geometry" />
        </mxCell>
        <mxCell id="AD1-2I_FPRvKC91VBRbE-135" value="&lt;font style=&quot;font-size: 6px;&quot;&gt;out_en&lt;br&gt;&lt;/font&gt;" style="text;html=1;strokeColor=none;fillColor=none;align=left;verticalAlign=middle;whiteSpace=wrap;rounded=0;" parent="AD1-2I_FPRvKC91VBRbE-130" vertex="1">
          <mxGeometry y="40" width="30" height="10" as="geometry" />
        </mxCell>
        <mxCell id="AD1-2I_FPRvKC91VBRbE-136" value="&lt;span style=&quot;font-size: 6px;&quot;&gt;reg_in&lt;/span&gt;" style="text;html=1;strokeColor=none;fillColor=none;align=left;verticalAlign=middle;whiteSpace=wrap;rounded=0;" parent="AD1-2I_FPRvKC91VBRbE-130" vertex="1">
          <mxGeometry y="10" width="30" height="10" as="geometry" />
        </mxCell>
        <mxCell id="AD1-2I_FPRvKC91VBRbE-137" value="&lt;span style=&quot;font-size: 6px;&quot;&gt;reg_out&lt;/span&gt;" style="text;html=1;strokeColor=none;fillColor=none;align=right;verticalAlign=middle;whiteSpace=wrap;rounded=0;" parent="AD1-2I_FPRvKC91VBRbE-130" vertex="1">
          <mxGeometry x="30" y="10" width="30" height="10" as="geometry" />
        </mxCell>
        <mxCell id="AD1-2I_FPRvKC91VBRbE-146" value="" style="group;align=right;" parent="1" vertex="1" connectable="0">
          <mxGeometry x="870" y="325" width="60" height="80" as="geometry" />
        </mxCell>
        <mxCell id="AD1-2I_FPRvKC91VBRbE-147" value="" style="rounded=0;whiteSpace=wrap;html=1;" parent="AD1-2I_FPRvKC91VBRbE-146" vertex="1">
          <mxGeometry width="60" height="80" as="geometry" />
        </mxCell>
        <mxCell id="AD1-2I_FPRvKC91VBRbE-148" value="&lt;font style=&quot;font-size: 7px;&quot;&gt;reg 100&lt;/font&gt;" style="text;html=1;strokeColor=none;fillColor=none;align=center;verticalAlign=middle;whiteSpace=wrap;rounded=0;" parent="AD1-2I_FPRvKC91VBRbE-146" vertex="1">
          <mxGeometry x="30" y="60" width="30" height="20" as="geometry" />
        </mxCell>
        <mxCell id="AD1-2I_FPRvKC91VBRbE-149" value="&lt;font style=&quot;font-size: 6px;&quot;&gt;write_en&lt;/font&gt;" style="text;html=1;strokeColor=none;fillColor=none;align=left;verticalAlign=middle;whiteSpace=wrap;rounded=0;" parent="AD1-2I_FPRvKC91VBRbE-146" vertex="1">
          <mxGeometry y="30" width="30" height="10" as="geometry" />
        </mxCell>
        <mxCell id="AD1-2I_FPRvKC91VBRbE-150" value="&lt;font style=&quot;font-size: 6px;&quot;&gt;clk&lt;br&gt;&lt;/font&gt;" style="text;html=1;strokeColor=none;fillColor=none;align=left;verticalAlign=middle;whiteSpace=wrap;rounded=0;" parent="AD1-2I_FPRvKC91VBRbE-146" vertex="1">
          <mxGeometry y="50" width="30" height="10" as="geometry" />
        </mxCell>
        <mxCell id="AD1-2I_FPRvKC91VBRbE-151" value="&lt;font style=&quot;font-size: 6px;&quot;&gt;out_en&lt;br&gt;&lt;/font&gt;" style="text;html=1;strokeColor=none;fillColor=none;align=left;verticalAlign=middle;whiteSpace=wrap;rounded=0;" parent="AD1-2I_FPRvKC91VBRbE-146" vertex="1">
          <mxGeometry y="40" width="30" height="10" as="geometry" />
        </mxCell>
        <mxCell id="AD1-2I_FPRvKC91VBRbE-152" value="&lt;span style=&quot;font-size: 6px;&quot;&gt;reg_in&lt;/span&gt;" style="text;html=1;strokeColor=none;fillColor=none;align=left;verticalAlign=middle;whiteSpace=wrap;rounded=0;" parent="AD1-2I_FPRvKC91VBRbE-146" vertex="1">
          <mxGeometry y="10" width="30" height="10" as="geometry" />
        </mxCell>
        <mxCell id="AD1-2I_FPRvKC91VBRbE-153" value="&lt;span style=&quot;font-size: 6px;&quot;&gt;reg_out&lt;/span&gt;" style="text;html=1;strokeColor=none;fillColor=none;align=right;verticalAlign=middle;whiteSpace=wrap;rounded=0;" parent="AD1-2I_FPRvKC91VBRbE-146" vertex="1">
          <mxGeometry x="30" y="10" width="30" height="10" as="geometry" />
        </mxCell>
        <mxCell id="AD1-2I_FPRvKC91VBRbE-138" value="" style="group;align=right;" parent="1" vertex="1" connectable="0">
          <mxGeometry x="750" y="325" width="60" height="80" as="geometry" />
        </mxCell>
        <mxCell id="AD1-2I_FPRvKC91VBRbE-139" value="" style="rounded=0;whiteSpace=wrap;html=1;" parent="AD1-2I_FPRvKC91VBRbE-138" vertex="1">
          <mxGeometry width="60" height="80" as="geometry" />
        </mxCell>
        <mxCell id="AD1-2I_FPRvKC91VBRbE-140" value="&lt;font style=&quot;font-size: 7px;&quot;&gt;reg 011&lt;/font&gt;" style="text;html=1;strokeColor=none;fillColor=none;align=center;verticalAlign=middle;whiteSpace=wrap;rounded=0;" parent="AD1-2I_FPRvKC91VBRbE-138" vertex="1">
          <mxGeometry x="30" y="60" width="30" height="20" as="geometry" />
        </mxCell>
        <mxCell id="AD1-2I_FPRvKC91VBRbE-141" value="&lt;font style=&quot;font-size: 6px;&quot;&gt;write_en&lt;/font&gt;" style="text;html=1;strokeColor=none;fillColor=none;align=left;verticalAlign=middle;whiteSpace=wrap;rounded=0;" parent="AD1-2I_FPRvKC91VBRbE-138" vertex="1">
          <mxGeometry y="30" width="30" height="10" as="geometry" />
        </mxCell>
        <mxCell id="AD1-2I_FPRvKC91VBRbE-142" value="&lt;font style=&quot;font-size: 6px;&quot;&gt;clk&lt;br&gt;&lt;/font&gt;" style="text;html=1;strokeColor=none;fillColor=none;align=left;verticalAlign=middle;whiteSpace=wrap;rounded=0;" parent="AD1-2I_FPRvKC91VBRbE-138" vertex="1">
          <mxGeometry y="50" width="30" height="10" as="geometry" />
        </mxCell>
        <mxCell id="AD1-2I_FPRvKC91VBRbE-143" value="&lt;font style=&quot;font-size: 6px;&quot;&gt;out_en&lt;br&gt;&lt;/font&gt;" style="text;html=1;strokeColor=none;fillColor=none;align=left;verticalAlign=middle;whiteSpace=wrap;rounded=0;" parent="AD1-2I_FPRvKC91VBRbE-138" vertex="1">
          <mxGeometry y="40" width="30" height="10" as="geometry" />
        </mxCell>
        <mxCell id="AD1-2I_FPRvKC91VBRbE-144" value="&lt;span style=&quot;font-size: 6px;&quot;&gt;reg_in&lt;/span&gt;" style="text;html=1;strokeColor=none;fillColor=none;align=left;verticalAlign=middle;whiteSpace=wrap;rounded=0;" parent="AD1-2I_FPRvKC91VBRbE-138" vertex="1">
          <mxGeometry y="10" width="30" height="10" as="geometry" />
        </mxCell>
        <mxCell id="AD1-2I_FPRvKC91VBRbE-145" value="&lt;span style=&quot;font-size: 6px;&quot;&gt;reg_out&lt;/span&gt;" style="text;html=1;strokeColor=none;fillColor=none;align=right;verticalAlign=middle;whiteSpace=wrap;rounded=0;" parent="AD1-2I_FPRvKC91VBRbE-138" vertex="1">
          <mxGeometry x="30" y="10" width="30" height="10" as="geometry" />
        </mxCell>
        <mxCell id="AD1-2I_FPRvKC91VBRbE-155" value="" style="group;align=right;" parent="1" vertex="1" connectable="0">
          <mxGeometry x="990" y="325" width="60" height="80" as="geometry" />
        </mxCell>
        <mxCell id="AD1-2I_FPRvKC91VBRbE-156" value="" style="rounded=0;whiteSpace=wrap;html=1;" parent="AD1-2I_FPRvKC91VBRbE-155" vertex="1">
          <mxGeometry width="60" height="80" as="geometry" />
        </mxCell>
        <mxCell id="AD1-2I_FPRvKC91VBRbE-157" value="&lt;font style=&quot;font-size: 7px;&quot;&gt;reg 101&lt;/font&gt;" style="text;html=1;strokeColor=none;fillColor=none;align=center;verticalAlign=middle;whiteSpace=wrap;rounded=0;" parent="AD1-2I_FPRvKC91VBRbE-155" vertex="1">
          <mxGeometry x="30" y="60" width="30" height="20" as="geometry" />
        </mxCell>
        <mxCell id="AD1-2I_FPRvKC91VBRbE-158" value="&lt;font style=&quot;font-size: 6px;&quot;&gt;write_en&lt;/font&gt;" style="text;html=1;strokeColor=none;fillColor=none;align=left;verticalAlign=middle;whiteSpace=wrap;rounded=0;" parent="AD1-2I_FPRvKC91VBRbE-155" vertex="1">
          <mxGeometry y="30" width="30" height="10" as="geometry" />
        </mxCell>
        <mxCell id="AD1-2I_FPRvKC91VBRbE-159" value="&lt;font style=&quot;font-size: 6px;&quot;&gt;clk&lt;br&gt;&lt;/font&gt;" style="text;html=1;strokeColor=none;fillColor=none;align=left;verticalAlign=middle;whiteSpace=wrap;rounded=0;" parent="AD1-2I_FPRvKC91VBRbE-155" vertex="1">
          <mxGeometry y="50" width="30" height="10" as="geometry" />
        </mxCell>
        <mxCell id="AD1-2I_FPRvKC91VBRbE-160" value="&lt;font style=&quot;font-size: 6px;&quot;&gt;out_en&lt;br&gt;&lt;/font&gt;" style="text;html=1;strokeColor=none;fillColor=none;align=left;verticalAlign=middle;whiteSpace=wrap;rounded=0;" parent="AD1-2I_FPRvKC91VBRbE-155" vertex="1">
          <mxGeometry y="40" width="30" height="10" as="geometry" />
        </mxCell>
        <mxCell id="AD1-2I_FPRvKC91VBRbE-161" value="&lt;span style=&quot;font-size: 6px;&quot;&gt;reg_in&lt;/span&gt;" style="text;html=1;strokeColor=none;fillColor=none;align=left;verticalAlign=middle;whiteSpace=wrap;rounded=0;" parent="AD1-2I_FPRvKC91VBRbE-155" vertex="1">
          <mxGeometry y="10" width="30" height="10" as="geometry" />
        </mxCell>
        <mxCell id="AD1-2I_FPRvKC91VBRbE-162" value="&lt;span style=&quot;font-size: 6px;&quot;&gt;reg_out&lt;/span&gt;" style="text;html=1;strokeColor=none;fillColor=none;align=right;verticalAlign=middle;whiteSpace=wrap;rounded=0;" parent="AD1-2I_FPRvKC91VBRbE-155" vertex="1">
          <mxGeometry x="30" y="10" width="30" height="10" as="geometry" />
        </mxCell>
        <mxCell id="AD1-2I_FPRvKC91VBRbE-163" value="" style="group;align=right;" parent="1" vertex="1" connectable="0">
          <mxGeometry x="1110" y="325" width="60" height="80" as="geometry" />
        </mxCell>
        <mxCell id="AD1-2I_FPRvKC91VBRbE-164" value="" style="rounded=0;whiteSpace=wrap;html=1;" parent="AD1-2I_FPRvKC91VBRbE-163" vertex="1">
          <mxGeometry width="60" height="80" as="geometry" />
        </mxCell>
        <mxCell id="AD1-2I_FPRvKC91VBRbE-165" value="&lt;font style=&quot;font-size: 7px;&quot;&gt;reg 110&lt;br&gt;&lt;/font&gt;" style="text;html=1;strokeColor=none;fillColor=none;align=center;verticalAlign=middle;whiteSpace=wrap;rounded=0;" parent="AD1-2I_FPRvKC91VBRbE-163" vertex="1">
          <mxGeometry x="30" y="60" width="30" height="20" as="geometry" />
        </mxCell>
        <mxCell id="AD1-2I_FPRvKC91VBRbE-166" value="&lt;font style=&quot;font-size: 6px;&quot;&gt;write_en&lt;/font&gt;" style="text;html=1;strokeColor=none;fillColor=none;align=left;verticalAlign=middle;whiteSpace=wrap;rounded=0;" parent="AD1-2I_FPRvKC91VBRbE-163" vertex="1">
          <mxGeometry y="30" width="30" height="10" as="geometry" />
        </mxCell>
        <mxCell id="AD1-2I_FPRvKC91VBRbE-167" value="&lt;font style=&quot;font-size: 6px;&quot;&gt;clk&lt;br&gt;&lt;/font&gt;" style="text;html=1;strokeColor=none;fillColor=none;align=left;verticalAlign=middle;whiteSpace=wrap;rounded=0;" parent="AD1-2I_FPRvKC91VBRbE-163" vertex="1">
          <mxGeometry y="50" width="30" height="10" as="geometry" />
        </mxCell>
        <mxCell id="AD1-2I_FPRvKC91VBRbE-168" value="&lt;font style=&quot;font-size: 6px;&quot;&gt;out_en&lt;br&gt;&lt;/font&gt;" style="text;html=1;strokeColor=none;fillColor=none;align=left;verticalAlign=middle;whiteSpace=wrap;rounded=0;" parent="AD1-2I_FPRvKC91VBRbE-163" vertex="1">
          <mxGeometry y="40" width="30" height="10" as="geometry" />
        </mxCell>
        <mxCell id="AD1-2I_FPRvKC91VBRbE-169" value="&lt;span style=&quot;font-size: 6px;&quot;&gt;reg_in&lt;/span&gt;" style="text;html=1;strokeColor=none;fillColor=none;align=left;verticalAlign=middle;whiteSpace=wrap;rounded=0;" parent="AD1-2I_FPRvKC91VBRbE-163" vertex="1">
          <mxGeometry y="10" width="30" height="10" as="geometry" />
        </mxCell>
        <mxCell id="AD1-2I_FPRvKC91VBRbE-170" value="&lt;span style=&quot;font-size: 6px;&quot;&gt;reg_out&lt;/span&gt;" style="text;html=1;strokeColor=none;fillColor=none;align=right;verticalAlign=middle;whiteSpace=wrap;rounded=0;" parent="AD1-2I_FPRvKC91VBRbE-163" vertex="1">
          <mxGeometry x="30" y="10" width="30" height="10" as="geometry" />
        </mxCell>
        <mxCell id="AD1-2I_FPRvKC91VBRbE-171" value="" style="group;align=right;" parent="1" vertex="1" connectable="0">
          <mxGeometry x="1230" y="325" width="60" height="80" as="geometry" />
        </mxCell>
        <mxCell id="AD1-2I_FPRvKC91VBRbE-172" value="" style="rounded=0;whiteSpace=wrap;html=1;" parent="AD1-2I_FPRvKC91VBRbE-171" vertex="1">
          <mxGeometry width="60" height="80" as="geometry" />
        </mxCell>
        <mxCell id="AD1-2I_FPRvKC91VBRbE-173" value="&lt;font style=&quot;font-size: 7px;&quot;&gt;reg 111&lt;br&gt;&lt;/font&gt;" style="text;html=1;strokeColor=none;fillColor=none;align=center;verticalAlign=middle;whiteSpace=wrap;rounded=0;" parent="AD1-2I_FPRvKC91VBRbE-171" vertex="1">
          <mxGeometry x="30" y="60" width="30" height="20" as="geometry" />
        </mxCell>
        <mxCell id="AD1-2I_FPRvKC91VBRbE-174" value="&lt;font style=&quot;font-size: 6px;&quot;&gt;write_en&lt;/font&gt;" style="text;html=1;strokeColor=none;fillColor=none;align=left;verticalAlign=middle;whiteSpace=wrap;rounded=0;" parent="AD1-2I_FPRvKC91VBRbE-171" vertex="1">
          <mxGeometry y="30" width="30" height="10" as="geometry" />
        </mxCell>
        <mxCell id="AD1-2I_FPRvKC91VBRbE-175" value="&lt;font style=&quot;font-size: 6px;&quot;&gt;clk&lt;br&gt;&lt;/font&gt;" style="text;html=1;strokeColor=none;fillColor=none;align=left;verticalAlign=middle;whiteSpace=wrap;rounded=0;" parent="AD1-2I_FPRvKC91VBRbE-171" vertex="1">
          <mxGeometry y="50" width="30" height="10" as="geometry" />
        </mxCell>
        <mxCell id="AD1-2I_FPRvKC91VBRbE-176" value="&lt;font style=&quot;font-size: 6px;&quot;&gt;out_en&lt;br&gt;&lt;/font&gt;" style="text;html=1;strokeColor=none;fillColor=none;align=left;verticalAlign=middle;whiteSpace=wrap;rounded=0;" parent="AD1-2I_FPRvKC91VBRbE-171" vertex="1">
          <mxGeometry y="40" width="30" height="10" as="geometry" />
        </mxCell>
        <mxCell id="AD1-2I_FPRvKC91VBRbE-177" value="&lt;span style=&quot;font-size: 6px;&quot;&gt;reg_in&lt;/span&gt;" style="text;html=1;strokeColor=none;fillColor=none;align=left;verticalAlign=middle;whiteSpace=wrap;rounded=0;" parent="AD1-2I_FPRvKC91VBRbE-171" vertex="1">
          <mxGeometry y="10" width="30" height="10" as="geometry" />
        </mxCell>
        <mxCell id="AD1-2I_FPRvKC91VBRbE-178" value="&lt;span style=&quot;font-size: 6px;&quot;&gt;reg_out&lt;/span&gt;" style="text;html=1;strokeColor=none;fillColor=none;align=right;verticalAlign=middle;whiteSpace=wrap;rounded=0;" parent="AD1-2I_FPRvKC91VBRbE-171" vertex="1">
          <mxGeometry x="30" y="10" width="30" height="10" as="geometry" />
        </mxCell>
        <mxCell id="AD1-2I_FPRvKC91VBRbE-179" value="" style="edgeStyle=orthogonalEdgeStyle;shape=connector;rounded=0;orthogonalLoop=1;jettySize=auto;html=1;entryDx=0;entryDy=0;labelBackgroundColor=default;strokeColor=default;fontFamily=Helvetica;fontSize=11;fontColor=default;endArrow=none;" parent="1" edge="1">
          <mxGeometry relative="1" as="geometry">
            <mxPoint x="880" y="265" as="sourcePoint" />
            <mxPoint x="880" y="265" as="targetPoint" />
            <Array as="points" />
          </mxGeometry>
        </mxCell>
        <mxCell id="AD1-2I_FPRvKC91VBRbE-186" value="" style="edgeStyle=orthogonalEdgeStyle;shape=connector;rounded=0;orthogonalLoop=1;jettySize=auto;html=1;entryDx=0;entryDy=0;labelBackgroundColor=default;strokeColor=default;fontFamily=Helvetica;fontSize=11;fontColor=default;endArrow=none;exitDx=0;exitDy=0;" parent="1" source="AD1-2I_FPRvKC91VBRbE-241" target="AD1-2I_FPRvKC91VBRbE-185" edge="1">
          <mxGeometry relative="1" as="geometry">
            <mxPoint x="390" y="343" as="sourcePoint" />
            <mxPoint x="1500" y="458" as="targetPoint" />
            <Array as="points">
              <mxPoint x="370" y="255" />
            </Array>
          </mxGeometry>
        </mxCell>
        <mxCell id="AD1-2I_FPRvKC91VBRbE-185" value="" style="shape=waypoint;sketch=0;fillStyle=solid;size=6;pointerEvents=1;points=[];fillColor=none;resizable=0;rotatable=0;perimeter=centerPerimeter;snapToPoint=1;fontFamily=Helvetica;fontSize=11;fontColor=default;" parent="1" vertex="1">
          <mxGeometry x="460" y="245" width="20" height="20" as="geometry" />
        </mxCell>
        <mxCell id="AD1-2I_FPRvKC91VBRbE-187" style="edgeStyle=orthogonalEdgeStyle;shape=connector;rounded=0;orthogonalLoop=1;jettySize=auto;html=1;exitX=1;exitY=0.75;exitDx=0;exitDy=0;entryX=0.6;entryY=0.928;entryDx=0;entryDy=0;entryPerimeter=0;labelBackgroundColor=default;strokeColor=default;fontFamily=Helvetica;fontSize=11;fontColor=default;endArrow=none;" parent="1" source="AD1-2I_FPRvKC91VBRbE-105" target="AD1-2I_FPRvKC91VBRbE-185" edge="1">
          <mxGeometry relative="1" as="geometry" />
        </mxCell>
        <mxCell id="AD1-2I_FPRvKC91VBRbE-189" value="" style="edgeStyle=orthogonalEdgeStyle;shape=connector;rounded=0;orthogonalLoop=1;jettySize=auto;html=1;entryDx=0;entryDy=0;labelBackgroundColor=default;strokeColor=default;fontFamily=Helvetica;fontSize=11;fontColor=default;endArrow=none;exitDx=0;exitDy=0;" parent="1" source="AD1-2I_FPRvKC91VBRbE-185" target="AD1-2I_FPRvKC91VBRbE-188" edge="1">
          <mxGeometry relative="1" as="geometry">
            <mxPoint x="470" y="255" as="sourcePoint" />
            <mxPoint x="1500" y="458" as="targetPoint" />
            <Array as="points" />
          </mxGeometry>
        </mxCell>
        <mxCell id="AD1-2I_FPRvKC91VBRbE-188" value="" style="shape=waypoint;sketch=0;fillStyle=solid;size=6;pointerEvents=1;points=[];fillColor=none;resizable=0;rotatable=0;perimeter=centerPerimeter;snapToPoint=1;fontFamily=Helvetica;fontSize=11;fontColor=default;" parent="1" vertex="1">
          <mxGeometry x="480" y="245" width="20" height="20" as="geometry" />
        </mxCell>
        <mxCell id="AD1-2I_FPRvKC91VBRbE-190" style="edgeStyle=orthogonalEdgeStyle;shape=connector;rounded=0;orthogonalLoop=1;jettySize=auto;html=1;exitX=0;exitY=0.75;exitDx=0;exitDy=0;labelBackgroundColor=default;strokeColor=default;fontFamily=Helvetica;fontSize=11;fontColor=default;endArrow=none;" parent="1" source="AD1-2I_FPRvKC91VBRbE-128" target="AD1-2I_FPRvKC91VBRbE-188" edge="1">
          <mxGeometry relative="1" as="geometry" />
        </mxCell>
        <mxCell id="AD1-2I_FPRvKC91VBRbE-191" value="" style="shape=waypoint;sketch=0;fillStyle=solid;size=6;pointerEvents=1;points=[];fillColor=none;resizable=0;rotatable=0;perimeter=centerPerimeter;snapToPoint=1;fontFamily=Helvetica;fontSize=11;fontColor=default;" parent="1" vertex="1">
          <mxGeometry x="580" y="245" width="20" height="20" as="geometry" />
        </mxCell>
        <mxCell id="AD1-2I_FPRvKC91VBRbE-192" value="" style="shape=waypoint;sketch=0;fillStyle=solid;size=6;pointerEvents=1;points=[];fillColor=none;resizable=0;rotatable=0;perimeter=centerPerimeter;snapToPoint=1;fontFamily=Helvetica;fontSize=11;fontColor=default;" parent="1" vertex="1">
          <mxGeometry x="600" y="245" width="20" height="20" as="geometry" />
        </mxCell>
        <mxCell id="AD1-2I_FPRvKC91VBRbE-193" style="edgeStyle=orthogonalEdgeStyle;shape=connector;rounded=0;orthogonalLoop=1;jettySize=auto;html=1;exitX=1;exitY=0.75;exitDx=0;exitDy=0;labelBackgroundColor=default;strokeColor=default;fontFamily=Helvetica;fontSize=11;fontColor=default;endArrow=none;" parent="1" source="AD1-2I_FPRvKC91VBRbE-129" target="AD1-2I_FPRvKC91VBRbE-191" edge="1">
          <mxGeometry relative="1" as="geometry" />
        </mxCell>
        <mxCell id="AD1-2I_FPRvKC91VBRbE-194" style="edgeStyle=orthogonalEdgeStyle;shape=connector;rounded=0;orthogonalLoop=1;jettySize=auto;html=1;exitX=0;exitY=0.75;exitDx=0;exitDy=0;entryX=0.565;entryY=0.892;entryDx=0;entryDy=0;entryPerimeter=0;labelBackgroundColor=default;strokeColor=default;fontFamily=Helvetica;fontSize=11;fontColor=default;endArrow=none;" parent="1" source="AD1-2I_FPRvKC91VBRbE-136" target="AD1-2I_FPRvKC91VBRbE-192" edge="1">
          <mxGeometry relative="1" as="geometry" />
        </mxCell>
        <mxCell id="AD1-2I_FPRvKC91VBRbE-196" value="" style="edgeStyle=orthogonalEdgeStyle;shape=connector;rounded=0;orthogonalLoop=1;jettySize=auto;html=1;entryDx=0;entryDy=0;labelBackgroundColor=default;strokeColor=default;fontFamily=Helvetica;fontSize=11;fontColor=default;endArrow=none;exitDx=0;exitDy=0;" parent="1" source="AD1-2I_FPRvKC91VBRbE-188" target="AD1-2I_FPRvKC91VBRbE-195" edge="1">
          <mxGeometry relative="1" as="geometry">
            <mxPoint x="490" y="255" as="sourcePoint" />
            <mxPoint x="1500" y="458" as="targetPoint" />
            <Array as="points" />
          </mxGeometry>
        </mxCell>
        <mxCell id="AD1-2I_FPRvKC91VBRbE-195" value="" style="shape=waypoint;sketch=0;fillStyle=solid;size=6;pointerEvents=1;points=[];fillColor=none;resizable=0;rotatable=0;perimeter=centerPerimeter;snapToPoint=1;fontFamily=Helvetica;fontSize=11;fontColor=default;" parent="1" vertex="1">
          <mxGeometry x="700" y="245" width="20" height="20" as="geometry" />
        </mxCell>
        <mxCell id="AD1-2I_FPRvKC91VBRbE-197" style="edgeStyle=orthogonalEdgeStyle;shape=connector;rounded=0;orthogonalLoop=1;jettySize=auto;html=1;exitX=1;exitY=0.75;exitDx=0;exitDy=0;labelBackgroundColor=default;strokeColor=default;fontFamily=Helvetica;fontSize=11;fontColor=default;endArrow=none;" parent="1" source="AD1-2I_FPRvKC91VBRbE-137" target="AD1-2I_FPRvKC91VBRbE-195" edge="1">
          <mxGeometry relative="1" as="geometry" />
        </mxCell>
        <mxCell id="AD1-2I_FPRvKC91VBRbE-199" value="" style="edgeStyle=orthogonalEdgeStyle;shape=connector;rounded=0;orthogonalLoop=1;jettySize=auto;html=1;entryDx=0;entryDy=0;labelBackgroundColor=default;strokeColor=default;fontFamily=Helvetica;fontSize=11;fontColor=default;endArrow=none;exitDx=0;exitDy=0;" parent="1" source="AD1-2I_FPRvKC91VBRbE-195" target="AD1-2I_FPRvKC91VBRbE-198" edge="1">
          <mxGeometry relative="1" as="geometry">
            <mxPoint x="710" y="255" as="sourcePoint" />
            <mxPoint x="1500" y="458" as="targetPoint" />
            <Array as="points" />
          </mxGeometry>
        </mxCell>
        <mxCell id="AD1-2I_FPRvKC91VBRbE-198" value="" style="shape=waypoint;sketch=0;fillStyle=solid;size=6;pointerEvents=1;points=[];fillColor=none;resizable=0;rotatable=0;perimeter=centerPerimeter;snapToPoint=1;fontFamily=Helvetica;fontSize=11;fontColor=default;" parent="1" vertex="1">
          <mxGeometry x="720" y="245" width="20" height="20" as="geometry" />
        </mxCell>
        <mxCell id="AD1-2I_FPRvKC91VBRbE-200" style="edgeStyle=orthogonalEdgeStyle;shape=connector;rounded=0;orthogonalLoop=1;jettySize=auto;html=1;exitX=0;exitY=0.75;exitDx=0;exitDy=0;labelBackgroundColor=default;strokeColor=default;fontFamily=Helvetica;fontSize=11;fontColor=default;endArrow=none;" parent="1" source="AD1-2I_FPRvKC91VBRbE-144" target="AD1-2I_FPRvKC91VBRbE-198" edge="1">
          <mxGeometry relative="1" as="geometry" />
        </mxCell>
        <mxCell id="AD1-2I_FPRvKC91VBRbE-202" value="" style="edgeStyle=orthogonalEdgeStyle;shape=connector;rounded=0;orthogonalLoop=1;jettySize=auto;html=1;entryDx=0;entryDy=0;labelBackgroundColor=default;strokeColor=default;fontFamily=Helvetica;fontSize=11;fontColor=default;endArrow=none;exitDx=0;exitDy=0;" parent="1" source="AD1-2I_FPRvKC91VBRbE-198" target="AD1-2I_FPRvKC91VBRbE-201" edge="1">
          <mxGeometry relative="1" as="geometry">
            <mxPoint x="730" y="255" as="sourcePoint" />
            <mxPoint x="1500" y="458" as="targetPoint" />
            <Array as="points" />
          </mxGeometry>
        </mxCell>
        <mxCell id="AD1-2I_FPRvKC91VBRbE-201" value="" style="shape=waypoint;sketch=0;fillStyle=solid;size=6;pointerEvents=1;points=[];fillColor=none;resizable=0;rotatable=0;perimeter=centerPerimeter;snapToPoint=1;fontFamily=Helvetica;fontSize=11;fontColor=default;" parent="1" vertex="1">
          <mxGeometry x="820" y="245" width="20" height="20" as="geometry" />
        </mxCell>
        <mxCell id="AD1-2I_FPRvKC91VBRbE-203" style="edgeStyle=orthogonalEdgeStyle;shape=connector;rounded=0;orthogonalLoop=1;jettySize=auto;html=1;exitX=1;exitY=0.75;exitDx=0;exitDy=0;labelBackgroundColor=default;strokeColor=default;fontFamily=Helvetica;fontSize=11;fontColor=default;endArrow=none;" parent="1" source="AD1-2I_FPRvKC91VBRbE-145" target="AD1-2I_FPRvKC91VBRbE-201" edge="1">
          <mxGeometry relative="1" as="geometry" />
        </mxCell>
        <mxCell id="AD1-2I_FPRvKC91VBRbE-205" value="" style="edgeStyle=orthogonalEdgeStyle;shape=connector;rounded=0;orthogonalLoop=1;jettySize=auto;html=1;entryDx=0;entryDy=0;labelBackgroundColor=default;strokeColor=default;fontFamily=Helvetica;fontSize=11;fontColor=default;endArrow=none;exitDx=0;exitDy=0;" parent="1" source="AD1-2I_FPRvKC91VBRbE-201" target="AD1-2I_FPRvKC91VBRbE-204" edge="1">
          <mxGeometry relative="1" as="geometry">
            <mxPoint x="830" y="255" as="sourcePoint" />
            <mxPoint x="1500" y="458" as="targetPoint" />
            <Array as="points" />
          </mxGeometry>
        </mxCell>
        <mxCell id="AD1-2I_FPRvKC91VBRbE-204" value="" style="shape=waypoint;sketch=0;fillStyle=solid;size=6;pointerEvents=1;points=[];fillColor=none;resizable=0;rotatable=0;perimeter=centerPerimeter;snapToPoint=1;fontFamily=Helvetica;fontSize=11;fontColor=default;" parent="1" vertex="1">
          <mxGeometry x="840" y="245" width="20" height="20" as="geometry" />
        </mxCell>
        <mxCell id="AD1-2I_FPRvKC91VBRbE-206" style="edgeStyle=orthogonalEdgeStyle;shape=connector;rounded=0;orthogonalLoop=1;jettySize=auto;html=1;exitX=0;exitY=0.75;exitDx=0;exitDy=0;entryX=0.733;entryY=0.683;entryDx=0;entryDy=0;entryPerimeter=0;labelBackgroundColor=default;strokeColor=default;fontFamily=Helvetica;fontSize=11;fontColor=default;endArrow=none;" parent="1" source="AD1-2I_FPRvKC91VBRbE-152" target="AD1-2I_FPRvKC91VBRbE-204" edge="1">
          <mxGeometry relative="1" as="geometry" />
        </mxCell>
        <mxCell id="AD1-2I_FPRvKC91VBRbE-208" value="" style="edgeStyle=orthogonalEdgeStyle;shape=connector;rounded=0;orthogonalLoop=1;jettySize=auto;html=1;entryDx=0;entryDy=0;labelBackgroundColor=default;strokeColor=default;fontFamily=Helvetica;fontSize=11;fontColor=default;endArrow=none;exitDx=0;exitDy=0;" parent="1" source="AD1-2I_FPRvKC91VBRbE-204" target="AD1-2I_FPRvKC91VBRbE-207" edge="1">
          <mxGeometry relative="1" as="geometry">
            <mxPoint x="850" y="255" as="sourcePoint" />
            <mxPoint x="1500" y="458" as="targetPoint" />
            <Array as="points" />
          </mxGeometry>
        </mxCell>
        <mxCell id="AD1-2I_FPRvKC91VBRbE-207" value="" style="shape=waypoint;sketch=0;fillStyle=solid;size=6;pointerEvents=1;points=[];fillColor=none;resizable=0;rotatable=0;perimeter=centerPerimeter;snapToPoint=1;fontFamily=Helvetica;fontSize=11;fontColor=default;" parent="1" vertex="1">
          <mxGeometry x="940" y="245" width="20" height="20" as="geometry" />
        </mxCell>
        <mxCell id="AD1-2I_FPRvKC91VBRbE-210" value="" style="edgeStyle=orthogonalEdgeStyle;shape=connector;rounded=0;orthogonalLoop=1;jettySize=auto;html=1;entryDx=0;entryDy=0;labelBackgroundColor=default;strokeColor=default;fontFamily=Helvetica;fontSize=11;fontColor=default;endArrow=none;exitDx=0;exitDy=0;" parent="1" source="AD1-2I_FPRvKC91VBRbE-207" target="AD1-2I_FPRvKC91VBRbE-209" edge="1">
          <mxGeometry relative="1" as="geometry">
            <mxPoint x="950" y="255" as="sourcePoint" />
            <mxPoint x="1500" y="458" as="targetPoint" />
            <Array as="points" />
          </mxGeometry>
        </mxCell>
        <mxCell id="AD1-2I_FPRvKC91VBRbE-209" value="" style="shape=waypoint;sketch=0;fillStyle=solid;size=6;pointerEvents=1;points=[];fillColor=none;resizable=0;rotatable=0;perimeter=centerPerimeter;snapToPoint=1;fontFamily=Helvetica;fontSize=11;fontColor=default;" parent="1" vertex="1">
          <mxGeometry x="960" y="245" width="20" height="20" as="geometry" />
        </mxCell>
        <mxCell id="AD1-2I_FPRvKC91VBRbE-211" style="edgeStyle=orthogonalEdgeStyle;shape=connector;rounded=0;orthogonalLoop=1;jettySize=auto;html=1;exitX=1;exitY=0.75;exitDx=0;exitDy=0;entryX=0.632;entryY=0.777;entryDx=0;entryDy=0;entryPerimeter=0;labelBackgroundColor=default;strokeColor=default;fontFamily=Helvetica;fontSize=11;fontColor=default;endArrow=none;" parent="1" source="AD1-2I_FPRvKC91VBRbE-153" target="AD1-2I_FPRvKC91VBRbE-207" edge="1">
          <mxGeometry relative="1" as="geometry" />
        </mxCell>
        <mxCell id="AD1-2I_FPRvKC91VBRbE-212" style="edgeStyle=orthogonalEdgeStyle;shape=connector;rounded=0;orthogonalLoop=1;jettySize=auto;html=1;exitX=0;exitY=0.75;exitDx=0;exitDy=0;entryX=0.577;entryY=0.795;entryDx=0;entryDy=0;entryPerimeter=0;labelBackgroundColor=default;strokeColor=default;fontFamily=Helvetica;fontSize=11;fontColor=default;endArrow=none;" parent="1" source="AD1-2I_FPRvKC91VBRbE-161" target="AD1-2I_FPRvKC91VBRbE-209" edge="1">
          <mxGeometry relative="1" as="geometry" />
        </mxCell>
        <mxCell id="AD1-2I_FPRvKC91VBRbE-214" value="" style="edgeStyle=orthogonalEdgeStyle;shape=connector;rounded=0;orthogonalLoop=1;jettySize=auto;html=1;entryDx=0;entryDy=0;labelBackgroundColor=default;strokeColor=default;fontFamily=Helvetica;fontSize=11;fontColor=default;endArrow=none;exitDx=0;exitDy=0;" parent="1" source="AD1-2I_FPRvKC91VBRbE-209" target="AD1-2I_FPRvKC91VBRbE-213" edge="1">
          <mxGeometry relative="1" as="geometry">
            <mxPoint x="970" y="255" as="sourcePoint" />
            <mxPoint x="1500" y="458" as="targetPoint" />
            <Array as="points" />
          </mxGeometry>
        </mxCell>
        <mxCell id="AD1-2I_FPRvKC91VBRbE-213" value="" style="shape=waypoint;sketch=0;fillStyle=solid;size=6;pointerEvents=1;points=[];fillColor=none;resizable=0;rotatable=0;perimeter=centerPerimeter;snapToPoint=1;fontFamily=Helvetica;fontSize=11;fontColor=default;" parent="1" vertex="1">
          <mxGeometry x="1060" y="245" width="20" height="20" as="geometry" />
        </mxCell>
        <mxCell id="AD1-2I_FPRvKC91VBRbE-216" value="" style="edgeStyle=orthogonalEdgeStyle;shape=connector;rounded=0;orthogonalLoop=1;jettySize=auto;html=1;entryDx=0;entryDy=0;labelBackgroundColor=default;strokeColor=default;fontFamily=Helvetica;fontSize=11;fontColor=default;endArrow=none;exitDx=0;exitDy=0;" parent="1" source="AD1-2I_FPRvKC91VBRbE-213" target="AD1-2I_FPRvKC91VBRbE-215" edge="1">
          <mxGeometry relative="1" as="geometry">
            <mxPoint x="1070" y="255" as="sourcePoint" />
            <mxPoint x="1500" y="458" as="targetPoint" />
            <Array as="points" />
          </mxGeometry>
        </mxCell>
        <mxCell id="AD1-2I_FPRvKC91VBRbE-215" value="" style="shape=waypoint;sketch=0;fillStyle=solid;size=6;pointerEvents=1;points=[];fillColor=none;resizable=0;rotatable=0;perimeter=centerPerimeter;snapToPoint=1;fontFamily=Helvetica;fontSize=11;fontColor=default;" parent="1" vertex="1">
          <mxGeometry x="1080" y="245" width="20" height="20" as="geometry" />
        </mxCell>
        <mxCell id="AD1-2I_FPRvKC91VBRbE-217" style="edgeStyle=orthogonalEdgeStyle;shape=connector;rounded=0;orthogonalLoop=1;jettySize=auto;html=1;exitX=1;exitY=0.75;exitDx=0;exitDy=0;entryX=0.632;entryY=0.741;entryDx=0;entryDy=0;entryPerimeter=0;labelBackgroundColor=default;strokeColor=default;fontFamily=Helvetica;fontSize=11;fontColor=default;endArrow=none;" parent="1" source="AD1-2I_FPRvKC91VBRbE-162" target="AD1-2I_FPRvKC91VBRbE-213" edge="1">
          <mxGeometry relative="1" as="geometry" />
        </mxCell>
        <mxCell id="AD1-2I_FPRvKC91VBRbE-218" style="edgeStyle=orthogonalEdgeStyle;shape=connector;rounded=0;orthogonalLoop=1;jettySize=auto;html=1;exitX=0;exitY=0.75;exitDx=0;exitDy=0;entryX=0.65;entryY=0.777;entryDx=0;entryDy=0;entryPerimeter=0;labelBackgroundColor=default;strokeColor=default;fontFamily=Helvetica;fontSize=11;fontColor=default;endArrow=none;" parent="1" source="AD1-2I_FPRvKC91VBRbE-169" target="AD1-2I_FPRvKC91VBRbE-215" edge="1">
          <mxGeometry relative="1" as="geometry" />
        </mxCell>
        <mxCell id="AD1-2I_FPRvKC91VBRbE-221" value="" style="edgeStyle=orthogonalEdgeStyle;shape=connector;rounded=0;orthogonalLoop=1;jettySize=auto;html=1;entryDx=0;entryDy=0;labelBackgroundColor=default;strokeColor=default;fontFamily=Helvetica;fontSize=11;fontColor=default;endArrow=none;exitDx=0;exitDy=0;" parent="1" source="AD1-2I_FPRvKC91VBRbE-215" target="AD1-2I_FPRvKC91VBRbE-220" edge="1">
          <mxGeometry relative="1" as="geometry">
            <mxPoint x="1090" y="255" as="sourcePoint" />
            <mxPoint x="1500" y="458" as="targetPoint" />
            <Array as="points" />
          </mxGeometry>
        </mxCell>
        <mxCell id="AD1-2I_FPRvKC91VBRbE-220" value="" style="shape=waypoint;sketch=0;fillStyle=solid;size=6;pointerEvents=1;points=[];fillColor=none;resizable=0;rotatable=0;perimeter=centerPerimeter;snapToPoint=1;fontFamily=Helvetica;fontSize=11;fontColor=default;" parent="1" vertex="1">
          <mxGeometry x="1180" y="245" width="20" height="20" as="geometry" />
        </mxCell>
        <mxCell id="AD1-2I_FPRvKC91VBRbE-223" value="" style="edgeStyle=orthogonalEdgeStyle;shape=connector;rounded=0;orthogonalLoop=1;jettySize=auto;html=1;entryDx=0;entryDy=0;labelBackgroundColor=default;strokeColor=default;fontFamily=Helvetica;fontSize=11;fontColor=default;endArrow=none;exitDx=0;exitDy=0;" parent="1" source="AD1-2I_FPRvKC91VBRbE-220" edge="1">
          <mxGeometry relative="1" as="geometry">
            <mxPoint x="1190" y="255" as="sourcePoint" />
            <mxPoint x="1210" y="255" as="targetPoint" />
            <Array as="points" />
          </mxGeometry>
        </mxCell>
        <mxCell id="AD1-2I_FPRvKC91VBRbE-224" style="edgeStyle=orthogonalEdgeStyle;shape=connector;rounded=0;orthogonalLoop=1;jettySize=auto;html=1;exitX=1;exitY=0.75;exitDx=0;exitDy=0;entryX=0.565;entryY=0.851;entryDx=0;entryDy=0;entryPerimeter=0;labelBackgroundColor=default;strokeColor=default;fontFamily=Helvetica;fontSize=11;fontColor=default;endArrow=none;" parent="1" source="AD1-2I_FPRvKC91VBRbE-170" target="AD1-2I_FPRvKC91VBRbE-220" edge="1">
          <mxGeometry relative="1" as="geometry" />
        </mxCell>
        <mxCell id="AD1-2I_FPRvKC91VBRbE-227" value="" style="edgeStyle=orthogonalEdgeStyle;shape=connector;rounded=0;orthogonalLoop=1;jettySize=auto;html=1;entryDx=0;entryDy=0;labelBackgroundColor=default;strokeColor=default;fontFamily=Helvetica;fontSize=11;fontColor=default;endArrow=none;exitDx=0;exitDy=0;" parent="1" target="AD1-2I_FPRvKC91VBRbE-226" edge="1">
          <mxGeometry relative="1" as="geometry">
            <mxPoint x="1210" y="255" as="sourcePoint" />
            <mxPoint x="1500" y="458" as="targetPoint" />
            <Array as="points">
              <mxPoint x="380" y="255" />
            </Array>
          </mxGeometry>
        </mxCell>
        <mxCell id="AD1-2I_FPRvKC91VBRbE-226" value="" style="shape=waypoint;sketch=0;fillStyle=solid;size=6;pointerEvents=1;points=[];fillColor=none;resizable=0;rotatable=0;perimeter=centerPerimeter;snapToPoint=1;fontFamily=Helvetica;fontSize=11;fontColor=default;" parent="1" vertex="1">
          <mxGeometry x="1300" y="245" width="20" height="20" as="geometry" />
        </mxCell>
        <mxCell id="AD1-2I_FPRvKC91VBRbE-228" style="edgeStyle=orthogonalEdgeStyle;shape=connector;rounded=0;orthogonalLoop=1;jettySize=auto;html=1;exitDx=0;exitDy=0;entryX=0.546;entryY=0.896;entryDx=0;entryDy=0;entryPerimeter=0;labelBackgroundColor=default;strokeColor=default;fontFamily=Helvetica;fontSize=11;fontColor=default;endArrow=none;" parent="1" source="AD1-2I_FPRvKC91VBRbE-271" target="AD1-2I_FPRvKC91VBRbE-226" edge="1">
          <mxGeometry relative="1" as="geometry" />
        </mxCell>
        <mxCell id="AD1-2I_FPRvKC91VBRbE-231" value="&lt;font style=&quot;font-size: 7px;&quot;&gt;addr_in_port_1&lt;/font&gt;" style="text;html=1;strokeColor=none;fillColor=none;align=left;verticalAlign=middle;whiteSpace=wrap;rounded=0;fontSize=7;fontFamily=Helvetica;fontColor=default;" parent="1" vertex="1">
          <mxGeometry x="370" y="524.37" width="60" height="13.75" as="geometry" />
        </mxCell>
        <mxCell id="AD1-2I_FPRvKC91VBRbE-243" style="edgeStyle=orthogonalEdgeStyle;shape=connector;rounded=0;orthogonalLoop=1;jettySize=auto;html=1;exitDx=0;exitDy=0;entryX=0.36;entryY=0.538;entryDx=0;entryDy=0;entryPerimeter=0;labelBackgroundColor=default;strokeColor=default;fontFamily=Helvetica;fontSize=11;fontColor=default;endArrow=none;jumpStyle=arc;" parent="1" target="AD1-2I_FPRvKC91VBRbE-241" edge="1">
          <mxGeometry relative="1" as="geometry">
            <Array as="points">
              <mxPoint x="330" y="256" />
              <mxPoint x="370" y="256" />
            </Array>
            <mxPoint x="330" y="494.37" as="sourcePoint" />
          </mxGeometry>
        </mxCell>
        <mxCell id="tiuVRjCa3sRhHjP37GoX-39" style="edgeStyle=orthogonalEdgeStyle;shape=connector;rounded=0;jumpStyle=arc;orthogonalLoop=1;jettySize=auto;html=1;exitX=1;exitY=0.5;exitDx=0;exitDy=0;entryX=0;entryY=0.25;entryDx=0;entryDy=0;labelBackgroundColor=default;strokeColor=default;align=center;verticalAlign=middle;fontFamily=Helvetica;fontSize=11;fontColor=default;endArrow=none;" edge="1" parent="1" source="AD1-2I_FPRvKC91VBRbE-233" target="tiuVRjCa3sRhHjP37GoX-5">
          <mxGeometry relative="1" as="geometry" />
        </mxCell>
        <mxCell id="AD1-2I_FPRvKC91VBRbE-233" value="&lt;font style=&quot;&quot;&gt;&lt;font style=&quot;font-size: 7px;&quot;&gt;data_out_port_1&lt;/font&gt;&lt;br&gt;&lt;/font&gt;" style="text;html=1;strokeColor=none;fillColor=none;align=right;verticalAlign=middle;whiteSpace=wrap;rounded=0;fontSize=11;fontFamily=Helvetica;fontColor=default;" parent="1" vertex="1">
          <mxGeometry x="440" y="521.25" width="50" height="13.75" as="geometry" />
        </mxCell>
        <mxCell id="AD1-2I_FPRvKC91VBRbE-242" value="" style="edgeStyle=orthogonalEdgeStyle;shape=connector;rounded=0;orthogonalLoop=1;jettySize=auto;html=1;entryDx=0;entryDy=0;labelBackgroundColor=default;strokeColor=default;fontFamily=Helvetica;fontSize=11;fontColor=default;endArrow=none;exitX=0;exitY=0.75;exitDx=0;exitDy=0;" parent="1" source="AD1-2I_FPRvKC91VBRbE-104" target="AD1-2I_FPRvKC91VBRbE-241" edge="1">
          <mxGeometry relative="1" as="geometry">
            <mxPoint x="390" y="342" as="sourcePoint" />
            <mxPoint x="470" y="255" as="targetPoint" />
            <Array as="points">
              <mxPoint x="370" y="343" />
            </Array>
          </mxGeometry>
        </mxCell>
        <mxCell id="AD1-2I_FPRvKC91VBRbE-241" value="" style="shape=waypoint;sketch=0;fillStyle=solid;size=6;pointerEvents=1;points=[];fillColor=none;resizable=0;rotatable=0;perimeter=centerPerimeter;snapToPoint=1;fontFamily=Helvetica;fontSize=11;fontColor=default;" parent="1" vertex="1">
          <mxGeometry x="360" y="245" width="20" height="20" as="geometry" />
        </mxCell>
        <mxCell id="AD1-2I_FPRvKC91VBRbE-265" value="" style="edgeStyle=orthogonalEdgeStyle;shape=connector;rounded=0;orthogonalLoop=1;jettySize=auto;html=1;exitDx=0;exitDy=0;entryDx=0;entryDy=0;entryPerimeter=0;labelBackgroundColor=default;strokeColor=default;fontFamily=Helvetica;fontSize=11;fontColor=default;endArrow=none;" parent="1" edge="1">
          <mxGeometry relative="1" as="geometry">
            <mxPoint x="1210" y="340" as="sourcePoint" />
            <mxPoint x="1210" y="340" as="targetPoint" />
          </mxGeometry>
        </mxCell>
        <mxCell id="AD1-2I_FPRvKC91VBRbE-269" value="" style="shape=waypoint;sketch=0;fillStyle=solid;size=6;pointerEvents=1;points=[];fillColor=none;resizable=0;rotatable=0;perimeter=centerPerimeter;snapToPoint=1;fontFamily=Helvetica;fontSize=11;fontColor=default;" parent="1" vertex="1">
          <mxGeometry x="1205" y="333" width="20" height="20" as="geometry" />
        </mxCell>
        <mxCell id="AD1-2I_FPRvKC91VBRbE-272" value="" style="edgeStyle=orthogonalEdgeStyle;shape=connector;rounded=0;orthogonalLoop=1;jettySize=auto;html=1;exitX=1;exitY=0.75;exitDx=0;exitDy=0;entryDx=0;entryDy=0;entryPerimeter=0;labelBackgroundColor=default;strokeColor=default;fontFamily=Helvetica;fontSize=11;fontColor=default;endArrow=none;" parent="1" source="AD1-2I_FPRvKC91VBRbE-178" target="AD1-2I_FPRvKC91VBRbE-271" edge="1">
          <mxGeometry relative="1" as="geometry">
            <mxPoint x="1290" y="343" as="sourcePoint" />
            <mxPoint x="1310" y="255" as="targetPoint" />
          </mxGeometry>
        </mxCell>
        <mxCell id="AD1-2I_FPRvKC91VBRbE-271" value="" style="shape=waypoint;sketch=0;fillStyle=solid;size=6;pointerEvents=1;points=[];fillColor=none;resizable=0;rotatable=0;perimeter=centerPerimeter;snapToPoint=1;fontFamily=Helvetica;fontSize=11;fontColor=default;" parent="1" vertex="1">
          <mxGeometry x="1300" y="333" width="20" height="20" as="geometry" />
        </mxCell>
        <mxCell id="AD1-2I_FPRvKC91VBRbE-287" value="" style="endArrow=none;html=1;rounded=0;labelBackgroundColor=default;strokeColor=default;fontFamily=Helvetica;fontSize=11;fontColor=default;shape=connector;jumpStyle=none;" parent="1" edge="1">
          <mxGeometry width="50" height="50" relative="1" as="geometry">
            <mxPoint x="350" y="265" as="sourcePoint" />
            <mxPoint x="360" y="245" as="targetPoint" />
          </mxGeometry>
        </mxCell>
        <mxCell id="AD1-2I_FPRvKC91VBRbE-289" value="8" style="edgeLabel;html=1;align=center;verticalAlign=middle;resizable=0;points=[];fontSize=11;fontFamily=Helvetica;fontColor=default;" parent="AD1-2I_FPRvKC91VBRbE-287" vertex="1" connectable="0">
          <mxGeometry x="0.8667" y="-1" relative="1" as="geometry">
            <mxPoint x="-10" y="-2" as="offset" />
          </mxGeometry>
        </mxCell>
        <mxCell id="AD1-2I_FPRvKC91VBRbE-290" value="CPU bus" style="text;html=1;strokeColor=none;fillColor=none;align=center;verticalAlign=middle;whiteSpace=wrap;rounded=0;fontSize=11;fontFamily=Helvetica;fontColor=default;" parent="1" vertex="1">
          <mxGeometry x="320" y="215" width="80" height="30" as="geometry" />
        </mxCell>
        <mxCell id="AD1-2I_FPRvKC91VBRbE-295" value="" style="endArrow=none;html=1;rounded=0;labelBackgroundColor=default;strokeColor=default;fontFamily=Helvetica;fontSize=11;fontColor=default;shape=connector;jumpStyle=arc;exitDx=0;exitDy=0;exitPerimeter=0;edgeStyle=orthogonalEdgeStyle;" parent="1" source="pn1axEp1Zz7bbhyXCy7V-21" target="tiuVRjCa3sRhHjP37GoX-80" edge="1">
          <mxGeometry width="50" height="50" relative="1" as="geometry">
            <mxPoint x="440" y="585" as="sourcePoint" />
            <mxPoint x="350" y="845" as="targetPoint" />
            <Array as="points">
              <mxPoint x="360" y="689" />
              <mxPoint x="360" y="700" />
              <mxPoint x="710" y="700" />
            </Array>
          </mxGeometry>
        </mxCell>
        <mxCell id="AD1-2I_FPRvKC91VBRbE-298" value="" style="endArrow=none;html=1;rounded=0;labelBackgroundColor=default;strokeColor=default;fontFamily=Helvetica;fontSize=11;fontColor=default;shape=connector;jumpStyle=none;" parent="1" edge="1">
          <mxGeometry width="50" height="50" relative="1" as="geometry">
            <mxPoint x="1500" y="504.37" as="sourcePoint" />
            <mxPoint x="1510" y="484.37" as="targetPoint" />
          </mxGeometry>
        </mxCell>
        <mxCell id="AD1-2I_FPRvKC91VBRbE-299" value="8" style="edgeLabel;html=1;align=center;verticalAlign=middle;resizable=0;points=[];fontSize=11;fontFamily=Helvetica;fontColor=default;" parent="AD1-2I_FPRvKC91VBRbE-298" vertex="1" connectable="0">
          <mxGeometry x="0.8667" y="-1" relative="1" as="geometry">
            <mxPoint x="-10" y="-2" as="offset" />
          </mxGeometry>
        </mxCell>
        <mxCell id="pn1axEp1Zz7bbhyXCy7V-22" value="" style="endArrow=none;html=1;rounded=0;labelBackgroundColor=default;strokeColor=default;fontFamily=Helvetica;fontSize=11;fontColor=default;shape=connector;jumpStyle=arc;exitDx=0;exitDy=0;exitPerimeter=0;entryDx=0;entryDy=0;entryPerimeter=0;edgeStyle=orthogonalEdgeStyle;" parent="1" source="pn1axEp1Zz7bbhyXCy7V-129" target="pn1axEp1Zz7bbhyXCy7V-21" edge="1">
          <mxGeometry width="50" height="50" relative="1" as="geometry">
            <mxPoint x="330" y="494.37" as="sourcePoint" />
            <mxPoint x="350" y="845" as="targetPoint" />
            <Array as="points" />
          </mxGeometry>
        </mxCell>
        <mxCell id="pn1axEp1Zz7bbhyXCy7V-21" value="" style="shape=waypoint;sketch=0;fillStyle=solid;size=6;pointerEvents=1;points=[];fillColor=none;resizable=0;rotatable=0;perimeter=centerPerimeter;snapToPoint=1;fontFamily=Helvetica;fontSize=11;fontColor=default;" parent="1" vertex="1">
          <mxGeometry x="320" y="678.76" width="20" height="20" as="geometry" />
        </mxCell>
        <mxCell id="pn1axEp1Zz7bbhyXCy7V-104" value="&lt;font style=&quot;font-size: 7px;&quot;&gt;greater_or equal _to&lt;/font&gt;" style="text;html=1;strokeColor=none;fillColor=none;align=right;verticalAlign=middle;whiteSpace=wrap;rounded=0;fontSize=11;fontFamily=Helvetica;fontColor=default;" parent="1" vertex="1">
          <mxGeometry x="1050" y="469.38" width="80" height="10" as="geometry" />
        </mxCell>
        <mxCell id="pn1axEp1Zz7bbhyXCy7V-105" value="&lt;font style=&quot;font-size: 7px;&quot;&gt;less_than&lt;/font&gt;" style="text;html=1;strokeColor=none;fillColor=none;align=right;verticalAlign=middle;whiteSpace=wrap;rounded=0;fontSize=11;fontFamily=Helvetica;fontColor=default;" parent="1" vertex="1">
          <mxGeometry x="1070" y="479.38" width="60" height="10" as="geometry" />
        </mxCell>
        <mxCell id="pn1axEp1Zz7bbhyXCy7V-106" value="&lt;font style=&quot;font-size: 7px;&quot;&gt;equal_to&lt;/font&gt;" style="text;html=1;strokeColor=none;fillColor=none;align=right;verticalAlign=middle;whiteSpace=wrap;rounded=0;fontSize=11;fontFamily=Helvetica;fontColor=default;" parent="1" vertex="1">
          <mxGeometry x="1070" y="489.38" width="60" height="10" as="geometry" />
        </mxCell>
        <mxCell id="pn1axEp1Zz7bbhyXCy7V-125" style="edgeStyle=orthogonalEdgeStyle;shape=connector;rounded=0;jumpStyle=arc;orthogonalLoop=1;jettySize=auto;html=1;exitX=0;exitY=0.5;exitDx=0;exitDy=0;labelBackgroundColor=default;strokeColor=default;fontFamily=Helvetica;fontSize=11;fontColor=default;endArrow=none;" parent="1" source="pn1axEp1Zz7bbhyXCy7V-115" target="pn1axEp1Zz7bbhyXCy7V-123" edge="1">
          <mxGeometry relative="1" as="geometry" />
        </mxCell>
        <mxCell id="pn1axEp1Zz7bbhyXCy7V-115" value="&lt;font style=&quot;font-size: 7px;&quot;&gt;data_in_port_1&lt;br style=&quot;font-size: 7px;&quot;&gt;&lt;/font&gt;" style="text;html=1;strokeColor=none;fillColor=none;align=left;verticalAlign=middle;whiteSpace=wrap;rounded=0;fontSize=7;fontFamily=Helvetica;fontColor=default;" parent="1" vertex="1">
          <mxGeometry x="370" y="551.87" width="60" height="13.75" as="geometry" />
        </mxCell>
        <mxCell id="pn1axEp1Zz7bbhyXCy7V-120" value="" style="endArrow=none;html=1;rounded=0;labelBackgroundColor=default;strokeColor=default;fontFamily=Helvetica;fontSize=11;fontColor=default;shape=connector;jumpStyle=arc;exitX=0.429;exitY=0.845;exitDx=0;exitDy=0;exitPerimeter=0;entryDx=0;entryDy=0;entryPerimeter=0;edgeStyle=orthogonalEdgeStyle;" parent="1" target="pn1axEp1Zz7bbhyXCy7V-119" edge="1">
          <mxGeometry width="50" height="50" relative="1" as="geometry">
            <mxPoint x="330" y="494.37" as="sourcePoint" />
            <mxPoint x="330" y="845" as="targetPoint" />
            <Array as="points" />
          </mxGeometry>
        </mxCell>
        <mxCell id="pn1axEp1Zz7bbhyXCy7V-119" value="" style="shape=waypoint;sketch=0;fillStyle=solid;size=6;pointerEvents=1;points=[];fillColor=none;resizable=0;rotatable=0;perimeter=centerPerimeter;snapToPoint=1;fontFamily=Helvetica;fontSize=11;fontColor=default;" parent="1" vertex="1">
          <mxGeometry x="320" y="535" width="20" height="20" as="geometry" />
        </mxCell>
        <mxCell id="pn1axEp1Zz7bbhyXCy7V-122" style="edgeStyle=orthogonalEdgeStyle;shape=connector;rounded=0;jumpStyle=arc;orthogonalLoop=1;jettySize=auto;html=1;exitX=0;exitY=0.5;exitDx=0;exitDy=0;entryX=0.656;entryY=0.531;entryDx=0;entryDy=0;entryPerimeter=0;labelBackgroundColor=default;strokeColor=default;fontFamily=Helvetica;fontSize=11;fontColor=default;endArrow=none;" parent="1" source="pn1axEp1Zz7bbhyXCy7V-114" target="pn1axEp1Zz7bbhyXCy7V-119" edge="1">
          <mxGeometry relative="1" as="geometry">
            <Array as="points">
              <mxPoint x="370" y="545" />
              <mxPoint x="330" y="545" />
            </Array>
          </mxGeometry>
        </mxCell>
        <mxCell id="pn1axEp1Zz7bbhyXCy7V-114" value="&lt;font style=&quot;font-size: 7px;&quot;&gt;addr_in_port_2&lt;/font&gt;" style="text;html=1;strokeColor=none;fillColor=none;align=left;verticalAlign=middle;whiteSpace=wrap;rounded=0;fontSize=7;fontFamily=Helvetica;fontColor=default;" parent="1" vertex="1">
          <mxGeometry x="370" y="538.12" width="60" height="13.75" as="geometry" />
        </mxCell>
        <mxCell id="pn1axEp1Zz7bbhyXCy7V-124" value="" style="endArrow=none;html=1;rounded=0;labelBackgroundColor=default;strokeColor=default;fontFamily=Helvetica;fontSize=11;fontColor=default;shape=connector;jumpStyle=arc;exitDx=0;exitDy=0;exitPerimeter=0;entryDx=0;entryDy=0;entryPerimeter=0;edgeStyle=orthogonalEdgeStyle;" parent="1" source="pn1axEp1Zz7bbhyXCy7V-119" target="pn1axEp1Zz7bbhyXCy7V-123" edge="1">
          <mxGeometry width="50" height="50" relative="1" as="geometry">
            <mxPoint x="330" y="545" as="sourcePoint" />
            <mxPoint x="330" y="845" as="targetPoint" />
            <Array as="points" />
          </mxGeometry>
        </mxCell>
        <mxCell id="pn1axEp1Zz7bbhyXCy7V-123" value="" style="shape=waypoint;sketch=0;fillStyle=solid;size=6;pointerEvents=1;points=[];fillColor=none;resizable=0;rotatable=0;perimeter=centerPerimeter;snapToPoint=1;fontFamily=Helvetica;fontSize=11;fontColor=default;" parent="1" vertex="1">
          <mxGeometry x="320" y="548.75" width="20" height="20" as="geometry" />
        </mxCell>
        <mxCell id="pn1axEp1Zz7bbhyXCy7V-130" value="" style="endArrow=none;html=1;rounded=0;labelBackgroundColor=default;strokeColor=default;fontFamily=Helvetica;fontSize=11;fontColor=default;shape=connector;jumpStyle=arc;exitDx=0;exitDy=0;exitPerimeter=0;entryDx=0;entryDy=0;entryPerimeter=0;edgeStyle=orthogonalEdgeStyle;" parent="1" source="pn1axEp1Zz7bbhyXCy7V-123" target="pn1axEp1Zz7bbhyXCy7V-129" edge="1">
          <mxGeometry width="50" height="50" relative="1" as="geometry">
            <mxPoint x="330" y="559" as="sourcePoint" />
            <mxPoint x="330" y="845" as="targetPoint" />
            <Array as="points" />
          </mxGeometry>
        </mxCell>
        <mxCell id="pn1axEp1Zz7bbhyXCy7V-129" value="" style="shape=waypoint;sketch=0;fillStyle=solid;size=6;pointerEvents=1;points=[];fillColor=none;resizable=0;rotatable=0;perimeter=centerPerimeter;snapToPoint=1;fontFamily=Helvetica;fontSize=11;fontColor=default;" parent="1" vertex="1">
          <mxGeometry x="320" y="658.76" width="20" height="20" as="geometry" />
        </mxCell>
        <mxCell id="pn1axEp1Zz7bbhyXCy7V-131" style="edgeStyle=orthogonalEdgeStyle;shape=connector;rounded=0;jumpStyle=arc;orthogonalLoop=1;jettySize=auto;html=1;exitX=1;exitY=0.5;exitDx=0;exitDy=0;entryX=0.72;entryY=0.75;entryDx=0;entryDy=0;entryPerimeter=0;labelBackgroundColor=default;strokeColor=default;fontFamily=Helvetica;fontSize=11;fontColor=default;endArrow=none;" parent="1" source="pn1axEp1Zz7bbhyXCy7V-128" target="pn1axEp1Zz7bbhyXCy7V-129" edge="1">
          <mxGeometry relative="1" as="geometry">
            <Array as="points">
              <mxPoint x="510" y="542" />
              <mxPoint x="510" y="669" />
            </Array>
          </mxGeometry>
        </mxCell>
        <mxCell id="pn1axEp1Zz7bbhyXCy7V-128" value="&lt;font style=&quot;&quot;&gt;&lt;font style=&quot;font-size: 7px;&quot;&gt;data_out_port_2&lt;/font&gt;&lt;br&gt;&lt;/font&gt;" style="text;html=1;strokeColor=none;fillColor=none;align=right;verticalAlign=middle;whiteSpace=wrap;rounded=0;fontSize=11;fontFamily=Helvetica;fontColor=default;" parent="1" vertex="1">
          <mxGeometry x="440" y="535" width="50" height="13.75" as="geometry" />
        </mxCell>
        <mxCell id="jeE5MprJbQdfb26vRbnc-1" value="&lt;h1&gt;Single Cycle Schematic&lt;/h1&gt;&lt;p style=&quot;font-size: 15px;&quot;&gt;This main concept of this implementation is a single 8-bit CPU bus. It enables minimum wiring + combinational resources, and is my attempt towards an ASIC tapeout All the instructions finish executing in one clock cycle, which gives us a simple design. However the trade off is that the clk speed has to be much slower.&amp;nbsp;&lt;/p&gt;&lt;p style=&quot;font-size: 15px;&quot;&gt;&lt;br&gt;&lt;/p&gt;" style="text;html=1;strokeColor=none;fillColor=none;spacing=5;spacingTop=-20;whiteSpace=wrap;overflow=hidden;rounded=0;" parent="1" vertex="1">
          <mxGeometry x="40" y="40" width="460" height="150" as="geometry" />
        </mxCell>
        <mxCell id="tLDN3tM3W0mny_JlB2la-2" value="Branch Decision" style="text;html=1;strokeColor=none;fillColor=none;align=left;verticalAlign=middle;whiteSpace=wrap;rounded=0;" parent="1" vertex="1">
          <mxGeometry x="1020" y="489.38" width="60" height="30" as="geometry" />
        </mxCell>
        <mxCell id="tLDN3tM3W0mny_JlB2la-15" style="edgeStyle=orthogonalEdgeStyle;shape=connector;rounded=0;jumpStyle=arc;orthogonalLoop=1;jettySize=auto;html=1;exitX=0.5;exitY=0;exitDx=0;exitDy=0;entryX=0;entryY=0.5;entryDx=0;entryDy=0;labelBackgroundColor=default;strokeColor=default;align=center;verticalAlign=middle;fontFamily=Helvetica;fontSize=11;fontColor=default;endArrow=none;" parent="1" source="tLDN3tM3W0mny_JlB2la-13" target="AD1-2I_FPRvKC91VBRbE-112" edge="1">
          <mxGeometry relative="1" as="geometry" />
        </mxCell>
        <mxCell id="tLDN3tM3W0mny_JlB2la-13" value="" style="shape=trapezoid;perimeter=trapezoidPerimeter;whiteSpace=wrap;html=1;fixedSize=1;direction=south;size=11.240000000000009;" parent="1" vertex="1">
          <mxGeometry x="600" y="580" width="20" height="60" as="geometry" />
        </mxCell>
        <mxCell id="tLDN3tM3W0mny_JlB2la-18" style="edgeStyle=orthogonalEdgeStyle;shape=connector;rounded=0;jumpStyle=arc;orthogonalLoop=1;jettySize=auto;html=1;exitX=1;exitY=0.5;exitDx=0;exitDy=0;entryX=0.75;entryY=1;entryDx=0;entryDy=0;labelBackgroundColor=default;strokeColor=default;align=center;verticalAlign=middle;fontFamily=Helvetica;fontSize=11;fontColor=default;endArrow=none;" parent="1" target="tLDN3tM3W0mny_JlB2la-13" edge="1">
          <mxGeometry relative="1" as="geometry">
            <mxPoint x="580" y="624.9999999999999" as="sourcePoint" />
          </mxGeometry>
        </mxCell>
        <mxCell id="tiuVRjCa3sRhHjP37GoX-1" value="0" style="text;html=1;strokeColor=none;fillColor=none;align=right;verticalAlign=middle;whiteSpace=wrap;rounded=0;fontSize=10;" vertex="1" parent="1">
          <mxGeometry x="605" y="614.38" width="10" height="14.38" as="geometry" />
        </mxCell>
        <mxCell id="tiuVRjCa3sRhHjP37GoX-2" value="1" style="text;html=1;strokeColor=none;fillColor=none;align=right;verticalAlign=middle;whiteSpace=wrap;rounded=0;fontSize=10;" vertex="1" parent="1">
          <mxGeometry x="605" y="589.9999999999999" width="10" height="14.38" as="geometry" />
        </mxCell>
        <mxCell id="tiuVRjCa3sRhHjP37GoX-31" style="edgeStyle=orthogonalEdgeStyle;shape=connector;rounded=0;jumpStyle=arc;orthogonalLoop=1;jettySize=auto;html=1;exitX=1;exitY=0.25;exitDx=0;exitDy=0;entryX=0;entryY=0.5;entryDx=0;entryDy=0;labelBackgroundColor=default;strokeColor=default;align=center;verticalAlign=middle;fontFamily=Helvetica;fontSize=11;fontColor=default;endArrow=none;" edge="1" parent="1" source="tiuVRjCa3sRhHjP37GoX-5" target="tiuVRjCa3sRhHjP37GoX-24">
          <mxGeometry relative="1" as="geometry">
            <Array as="points">
              <mxPoint x="670" y="478" />
              <mxPoint x="670" y="420" />
              <mxPoint x="1290" y="420" />
              <mxPoint x="1290" y="487" />
            </Array>
          </mxGeometry>
        </mxCell>
        <mxCell id="tiuVRjCa3sRhHjP37GoX-5" value="&lt;font style=&quot;font-size: 8px;&quot;&gt;Instruction &lt;br&gt;Decoder&lt;/font&gt;" style="rounded=0;whiteSpace=wrap;html=1;" vertex="1" parent="1">
          <mxGeometry x="530.0300000000001" y="454.38" width="120" height="88.75" as="geometry" />
        </mxCell>
        <mxCell id="tiuVRjCa3sRhHjP37GoX-6" value="&lt;font style=&quot;font-size: 7px;&quot;&gt;imm_out&lt;/font&gt;" style="text;html=1;strokeColor=none;fillColor=none;align=center;verticalAlign=middle;whiteSpace=wrap;rounded=0;fontSize=11;fontFamily=Helvetica;fontColor=default;" vertex="1" parent="1">
          <mxGeometry x="614.96" y="470.62" width="30" height="10" as="geometry" />
        </mxCell>
        <mxCell id="tiuVRjCa3sRhHjP37GoX-7" value="&lt;font style=&quot;font-size: 7px;&quot;&gt;reg_b_out&lt;/font&gt;" style="text;html=1;strokeColor=none;fillColor=none;align=center;verticalAlign=middle;whiteSpace=wrap;rounded=0;fontSize=11;fontFamily=Helvetica;fontColor=default;" vertex="1" parent="1">
          <mxGeometry x="610.55" y="495" width="39.45" height="10" as="geometry" />
        </mxCell>
        <mxCell id="tiuVRjCa3sRhHjP37GoX-8" value="&lt;font style=&quot;font-size: 7px;&quot;&gt;opcode [3:0]&lt;/font&gt;" style="text;html=1;strokeColor=none;fillColor=none;align=center;verticalAlign=middle;whiteSpace=wrap;rounded=0;fontSize=11;fontFamily=Helvetica;fontColor=default;" vertex="1" parent="1">
          <mxGeometry x="600" y="520.25" width="50.03" height="10" as="geometry" />
        </mxCell>
        <mxCell id="tiuVRjCa3sRhHjP37GoX-9" value="Control" style="rounded=0;whiteSpace=wrap;html=1;points=[[0,0,0,0,0],[0,0.25,0,0,0],[0,0.5,0,0,0],[0,0.75,0,0,0],[0,1,0,0,0],[0.25,0,0,0,0],[0.25,1,0,0,0],[0.5,0,0,0,0],[0.5,1,0,0,0],[0.75,0,0,0,0],[0.75,1,0,0,0],[1,0,0,0,0],[1,0.15,0,0,0],[1,0.3,0,0,0],[1,0.45,0,0,0],[1,0.59,0,0,0],[1,0.72,0,0,0],[1,0.86,0,0,0],[1,1,0,0,0]];" vertex="1" parent="1">
          <mxGeometry x="860" y="454.38" width="120" height="118.75" as="geometry" />
        </mxCell>
        <mxCell id="tiuVRjCa3sRhHjP37GoX-100" style="edgeStyle=orthogonalEdgeStyle;shape=connector;rounded=0;jumpStyle=arc;orthogonalLoop=1;jettySize=auto;html=1;exitX=0;exitY=0.5;exitDx=0;exitDy=0;entryX=1;entryY=0.5;entryDx=0;entryDy=0;labelBackgroundColor=default;strokeColor=default;align=center;verticalAlign=middle;fontFamily=Helvetica;fontSize=11;fontColor=default;endArrow=none;" edge="1" parent="1" source="tiuVRjCa3sRhHjP37GoX-10" target="tLDN3tM3W0mny_JlB2la-13">
          <mxGeometry relative="1" as="geometry">
            <Array as="points">
              <mxPoint x="1000" y="474" />
              <mxPoint x="1000" y="740" />
              <mxPoint x="610" y="740" />
            </Array>
          </mxGeometry>
        </mxCell>
        <mxCell id="tiuVRjCa3sRhHjP37GoX-10" value="pc_sel" style="text;html=1;strokeColor=none;fillColor=none;align=center;verticalAlign=middle;whiteSpace=wrap;rounded=0;fontSize=11;fontFamily=Helvetica;fontColor=default;" vertex="1" parent="1">
          <mxGeometry x="1009.9999999999998" y="464.38" width="45" height="20" as="geometry" />
        </mxCell>
        <mxCell id="tiuVRjCa3sRhHjP37GoX-37" style="edgeStyle=orthogonalEdgeStyle;shape=connector;rounded=0;jumpStyle=arc;orthogonalLoop=1;jettySize=auto;html=1;exitX=0;exitY=0.5;exitDx=0;exitDy=0;labelBackgroundColor=default;strokeColor=default;align=center;verticalAlign=middle;fontFamily=Helvetica;fontSize=11;fontColor=default;endArrow=none;" edge="1" parent="1" source="tiuVRjCa3sRhHjP37GoX-16">
          <mxGeometry relative="1" as="geometry">
            <mxPoint x="540" y="624.38" as="targetPoint" />
          </mxGeometry>
        </mxCell>
        <mxCell id="tiuVRjCa3sRhHjP37GoX-16" value="+1" style="rounded=0;whiteSpace=wrap;html=1;fontFamily=Helvetica;fontSize=11;fontColor=default;" vertex="1" parent="1">
          <mxGeometry x="560" y="614.38" width="20" height="21.24" as="geometry" />
        </mxCell>
        <mxCell id="tiuVRjCa3sRhHjP37GoX-21" style="edgeStyle=orthogonalEdgeStyle;shape=connector;rounded=0;jumpStyle=arc;orthogonalLoop=1;jettySize=auto;html=1;exitX=0;exitY=0.5;exitDx=0;exitDy=0;labelBackgroundColor=default;strokeColor=default;align=center;verticalAlign=middle;fontFamily=Helvetica;fontSize=11;fontColor=default;endArrow=none;" edge="1" parent="1" source="hdAm_U4ZvtJkM7ybA8hB-17" target="AD1-2I_FPRvKC91VBRbE-271">
          <mxGeometry relative="1" as="geometry">
            <Array as="points">
              <mxPoint x="1330" y="458" />
              <mxPoint x="1330" y="343" />
            </Array>
          </mxGeometry>
        </mxCell>
        <mxCell id="tiuVRjCa3sRhHjP37GoX-30" style="edgeStyle=orthogonalEdgeStyle;shape=connector;rounded=0;jumpStyle=arc;orthogonalLoop=1;jettySize=auto;html=1;exitX=0.75;exitY=1;exitDx=0;exitDy=0;labelBackgroundColor=default;strokeColor=default;align=center;verticalAlign=middle;fontFamily=Helvetica;fontSize=11;fontColor=default;endArrow=none;" edge="1" parent="1" source="tiuVRjCa3sRhHjP37GoX-22" target="AD1-2I_FPRvKC91VBRbE-226">
          <mxGeometry relative="1" as="geometry">
            <Array as="points">
              <mxPoint x="1350" y="511" />
              <mxPoint x="1350" y="255" />
            </Array>
          </mxGeometry>
        </mxCell>
        <mxCell id="tiuVRjCa3sRhHjP37GoX-96" style="edgeStyle=orthogonalEdgeStyle;shape=connector;rounded=0;jumpStyle=arc;orthogonalLoop=1;jettySize=auto;html=1;exitX=1;exitY=0.5;exitDx=0;exitDy=0;entryX=0.5;entryY=0;entryDx=0;entryDy=0;labelBackgroundColor=default;strokeColor=default;align=center;verticalAlign=middle;fontFamily=Helvetica;fontSize=11;fontColor=default;endArrow=none;" edge="1" parent="1" source="tiuVRjCa3sRhHjP37GoX-22" target="tiuVRjCa3sRhHjP37GoX-95">
          <mxGeometry relative="1" as="geometry">
            <Array as="points">
              <mxPoint x="1375" y="540" />
              <mxPoint x="1365" y="540" />
            </Array>
          </mxGeometry>
        </mxCell>
        <mxCell id="tiuVRjCa3sRhHjP37GoX-22" value="" style="shape=trapezoid;perimeter=trapezoidPerimeter;whiteSpace=wrap;html=1;fixedSize=1;fontFamily=Helvetica;fontSize=11;fontColor=default;rotation=90;size=7.180000000000064;" vertex="1" parent="1">
          <mxGeometry x="1350" y="491.57" width="50" height="14.37" as="geometry" />
        </mxCell>
        <mxCell id="tiuVRjCa3sRhHjP37GoX-23" value="&lt;font style=&quot;font-size: 9px;&quot;&gt;0&lt;/font&gt;" style="text;html=1;strokeColor=none;fillColor=none;align=center;verticalAlign=middle;whiteSpace=wrap;rounded=0;fontSize=11;fontFamily=Helvetica;fontColor=default;" vertex="1" parent="1">
          <mxGeometry x="1370" y="503.37" width="10" height="10" as="geometry" />
        </mxCell>
        <mxCell id="tiuVRjCa3sRhHjP37GoX-24" value="&lt;font style=&quot;font-size: 9px;&quot;&gt;1&lt;/font&gt;" style="text;html=1;strokeColor=none;fillColor=none;align=center;verticalAlign=middle;whiteSpace=wrap;rounded=0;fontSize=11;fontFamily=Helvetica;fontColor=default;" vertex="1" parent="1">
          <mxGeometry x="1370" y="484.37" width="10" height="5.63" as="geometry" />
        </mxCell>
        <mxCell id="tiuVRjCa3sRhHjP37GoX-25" style="edgeStyle=orthogonalEdgeStyle;shape=connector;rounded=0;jumpStyle=arc;orthogonalLoop=1;jettySize=auto;html=1;exitX=0;exitY=0.5;exitDx=0;exitDy=0;entryX=0.5;entryY=0;entryDx=0;entryDy=0;labelBackgroundColor=default;strokeColor=default;align=center;verticalAlign=middle;fontFamily=Helvetica;fontSize=11;fontColor=default;endArrow=none;" edge="1" parent="1" source="hdAm_U4ZvtJkM7ybA8hB-8" target="tiuVRjCa3sRhHjP37GoX-22">
          <mxGeometry relative="1" as="geometry" />
        </mxCell>
        <mxCell id="tiuVRjCa3sRhHjP37GoX-35" value="" style="edgeStyle=orthogonalEdgeStyle;shape=connector;rounded=0;jumpStyle=arc;orthogonalLoop=1;jettySize=auto;html=1;exitX=1;exitY=0.75;exitDx=0;exitDy=0;entryDx=0;entryDy=0;labelBackgroundColor=default;strokeColor=default;align=center;verticalAlign=middle;fontFamily=Helvetica;fontSize=11;fontColor=default;endArrow=none;" edge="1" parent="1" source="tiuVRjCa3sRhHjP37GoX-15">
          <mxGeometry relative="1" as="geometry">
            <mxPoint x="690" y="603" as="sourcePoint" />
            <mxPoint x="540" y="624.38" as="targetPoint" />
            <Array as="points">
              <mxPoint x="700" y="622" />
              <mxPoint x="700" y="690" />
              <mxPoint x="540" y="690" />
            </Array>
          </mxGeometry>
        </mxCell>
        <mxCell id="tiuVRjCa3sRhHjP37GoX-45" style="edgeStyle=orthogonalEdgeStyle;shape=connector;rounded=0;jumpStyle=arc;orthogonalLoop=1;jettySize=auto;html=1;exitX=1;exitY=0.75;exitDx=0;exitDy=0;entryX=0;entryY=0.75;entryDx=0;entryDy=0;labelBackgroundColor=default;strokeColor=default;align=center;verticalAlign=middle;fontFamily=Helvetica;fontSize=11;fontColor=default;endArrow=none;" edge="1" parent="1" source="tiuVRjCa3sRhHjP37GoX-40" target="AD1-2I_FPRvKC91VBRbE-95">
          <mxGeometry relative="1" as="geometry">
            <Array as="points">
              <mxPoint x="380" y="368" />
              <mxPoint x="380" y="363" />
            </Array>
          </mxGeometry>
        </mxCell>
        <mxCell id="tiuVRjCa3sRhHjP37GoX-40" value="&lt;font style=&quot;font-size: 6px;&quot;&gt;000_write_en&lt;/font&gt;" style="text;html=1;strokeColor=none;fillColor=none;align=right;verticalAlign=middle;whiteSpace=wrap;rounded=0;fontSize=11;fontFamily=Helvetica;fontColor=default;" vertex="1" parent="1">
          <mxGeometry x="330" y="360" width="40" height="10" as="geometry" />
        </mxCell>
        <mxCell id="tiuVRjCa3sRhHjP37GoX-44" style="edgeStyle=orthogonalEdgeStyle;shape=connector;rounded=0;jumpStyle=arc;orthogonalLoop=1;jettySize=auto;html=1;exitX=1;exitY=0.75;exitDx=0;exitDy=0;entryX=0;entryY=0.75;entryDx=0;entryDy=0;labelBackgroundColor=default;strokeColor=default;align=center;verticalAlign=middle;fontFamily=Helvetica;fontSize=11;fontColor=default;endArrow=none;" edge="1" parent="1" source="tiuVRjCa3sRhHjP37GoX-42" target="AD1-2I_FPRvKC91VBRbE-97">
          <mxGeometry relative="1" as="geometry">
            <Array as="points">
              <mxPoint x="380" y="383" />
              <mxPoint x="380" y="373" />
            </Array>
          </mxGeometry>
        </mxCell>
        <mxCell id="tiuVRjCa3sRhHjP37GoX-42" value="&lt;font style=&quot;font-size: 6px;&quot;&gt;000_out_en&lt;/font&gt;" style="text;html=1;strokeColor=none;fillColor=none;align=right;verticalAlign=middle;whiteSpace=wrap;rounded=0;fontSize=11;fontFamily=Helvetica;fontColor=default;" vertex="1" parent="1">
          <mxGeometry x="330" y="375" width="40" height="10" as="geometry" />
        </mxCell>
        <mxCell id="tiuVRjCa3sRhHjP37GoX-49" style="edgeStyle=orthogonalEdgeStyle;shape=connector;rounded=0;jumpStyle=arc;orthogonalLoop=1;jettySize=auto;html=1;exitX=1;exitY=0.75;exitDx=0;exitDy=0;entryX=0;entryY=0.75;entryDx=0;entryDy=0;labelBackgroundColor=default;strokeColor=default;align=center;verticalAlign=middle;fontFamily=Helvetica;fontSize=11;fontColor=default;endArrow=none;" edge="1" parent="1" source="tiuVRjCa3sRhHjP37GoX-46" target="AD1-2I_FPRvKC91VBRbE-125">
          <mxGeometry relative="1" as="geometry">
            <Array as="points">
              <mxPoint x="500" y="368" />
              <mxPoint x="500" y="363" />
            </Array>
          </mxGeometry>
        </mxCell>
        <mxCell id="tiuVRjCa3sRhHjP37GoX-46" value="&lt;font style=&quot;font-size: 6px;&quot;&gt;001_write_en&lt;/font&gt;" style="text;html=1;strokeColor=none;fillColor=none;align=right;verticalAlign=middle;whiteSpace=wrap;rounded=0;fontSize=11;fontFamily=Helvetica;fontColor=default;" vertex="1" parent="1">
          <mxGeometry x="450" y="360" width="40" height="10" as="geometry" />
        </mxCell>
        <mxCell id="tiuVRjCa3sRhHjP37GoX-48" style="edgeStyle=orthogonalEdgeStyle;shape=connector;rounded=0;jumpStyle=arc;orthogonalLoop=1;jettySize=auto;html=1;exitX=1;exitY=0.75;exitDx=0;exitDy=0;entryX=0;entryY=0.75;entryDx=0;entryDy=0;labelBackgroundColor=default;strokeColor=default;align=center;verticalAlign=middle;fontFamily=Helvetica;fontSize=11;fontColor=default;endArrow=none;" edge="1" parent="1" source="tiuVRjCa3sRhHjP37GoX-47" target="AD1-2I_FPRvKC91VBRbE-127">
          <mxGeometry relative="1" as="geometry">
            <Array as="points">
              <mxPoint x="500" y="383" />
              <mxPoint x="500" y="373" />
            </Array>
          </mxGeometry>
        </mxCell>
        <mxCell id="tiuVRjCa3sRhHjP37GoX-47" value="&lt;font style=&quot;font-size: 6px;&quot;&gt;001_out_en&lt;/font&gt;" style="text;html=1;strokeColor=none;fillColor=none;align=right;verticalAlign=middle;whiteSpace=wrap;rounded=0;fontSize=11;fontFamily=Helvetica;fontColor=default;" vertex="1" parent="1">
          <mxGeometry x="450" y="375" width="40" height="10" as="geometry" />
        </mxCell>
        <mxCell id="tiuVRjCa3sRhHjP37GoX-53" style="edgeStyle=orthogonalEdgeStyle;shape=connector;rounded=0;jumpStyle=arc;orthogonalLoop=1;jettySize=auto;html=1;exitX=1;exitY=0.75;exitDx=0;exitDy=0;entryX=0;entryY=0.75;entryDx=0;entryDy=0;labelBackgroundColor=default;strokeColor=default;align=center;verticalAlign=middle;fontFamily=Helvetica;fontSize=11;fontColor=default;endArrow=none;" edge="1" parent="1" source="tiuVRjCa3sRhHjP37GoX-50" target="AD1-2I_FPRvKC91VBRbE-133">
          <mxGeometry relative="1" as="geometry">
            <Array as="points">
              <mxPoint x="620" y="368" />
              <mxPoint x="620" y="363" />
            </Array>
          </mxGeometry>
        </mxCell>
        <mxCell id="tiuVRjCa3sRhHjP37GoX-50" value="&lt;font style=&quot;font-size: 6px;&quot;&gt;010_write_en&lt;/font&gt;" style="text;html=1;strokeColor=none;fillColor=none;align=right;verticalAlign=middle;whiteSpace=wrap;rounded=0;fontSize=11;fontFamily=Helvetica;fontColor=default;" vertex="1" parent="1">
          <mxGeometry x="570.03" y="360" width="40" height="10" as="geometry" />
        </mxCell>
        <mxCell id="tiuVRjCa3sRhHjP37GoX-52" style="edgeStyle=orthogonalEdgeStyle;shape=connector;rounded=0;jumpStyle=arc;orthogonalLoop=1;jettySize=auto;html=1;exitX=1;exitY=0.75;exitDx=0;exitDy=0;entryX=0;entryY=0.75;entryDx=0;entryDy=0;labelBackgroundColor=default;strokeColor=default;align=center;verticalAlign=middle;fontFamily=Helvetica;fontSize=11;fontColor=default;endArrow=none;" edge="1" parent="1" source="tiuVRjCa3sRhHjP37GoX-51" target="AD1-2I_FPRvKC91VBRbE-135">
          <mxGeometry relative="1" as="geometry">
            <Array as="points">
              <mxPoint x="620" y="383" />
              <mxPoint x="620" y="373" />
            </Array>
          </mxGeometry>
        </mxCell>
        <mxCell id="tiuVRjCa3sRhHjP37GoX-51" value="&lt;font style=&quot;font-size: 6px;&quot;&gt;010_out_en&lt;/font&gt;" style="text;html=1;strokeColor=none;fillColor=none;align=right;verticalAlign=middle;whiteSpace=wrap;rounded=0;fontSize=11;fontFamily=Helvetica;fontColor=default;" vertex="1" parent="1">
          <mxGeometry x="570.03" y="375" width="40" height="10" as="geometry" />
        </mxCell>
        <mxCell id="tiuVRjCa3sRhHjP37GoX-57" style="edgeStyle=orthogonalEdgeStyle;shape=connector;rounded=0;jumpStyle=arc;orthogonalLoop=1;jettySize=auto;html=1;exitX=1;exitY=0.75;exitDx=0;exitDy=0;entryX=0;entryY=0.75;entryDx=0;entryDy=0;labelBackgroundColor=default;strokeColor=default;align=center;verticalAlign=middle;fontFamily=Helvetica;fontSize=11;fontColor=default;endArrow=none;" edge="1" parent="1" source="tiuVRjCa3sRhHjP37GoX-54" target="AD1-2I_FPRvKC91VBRbE-141">
          <mxGeometry relative="1" as="geometry">
            <Array as="points">
              <mxPoint x="740" y="368" />
              <mxPoint x="740" y="363" />
            </Array>
          </mxGeometry>
        </mxCell>
        <mxCell id="tiuVRjCa3sRhHjP37GoX-54" value="&lt;font style=&quot;font-size: 6px;&quot;&gt;011_write_en&lt;/font&gt;" style="text;html=1;strokeColor=none;fillColor=none;align=right;verticalAlign=middle;whiteSpace=wrap;rounded=0;fontSize=11;fontFamily=Helvetica;fontColor=default;" vertex="1" parent="1">
          <mxGeometry x="690" y="360" width="40" height="10" as="geometry" />
        </mxCell>
        <mxCell id="tiuVRjCa3sRhHjP37GoX-56" style="edgeStyle=orthogonalEdgeStyle;shape=connector;rounded=0;jumpStyle=arc;orthogonalLoop=1;jettySize=auto;html=1;exitX=1;exitY=0.75;exitDx=0;exitDy=0;entryX=0;entryY=0.75;entryDx=0;entryDy=0;labelBackgroundColor=default;strokeColor=default;align=center;verticalAlign=middle;fontFamily=Helvetica;fontSize=11;fontColor=default;endArrow=none;" edge="1" parent="1" source="tiuVRjCa3sRhHjP37GoX-55" target="AD1-2I_FPRvKC91VBRbE-143">
          <mxGeometry relative="1" as="geometry">
            <Array as="points">
              <mxPoint x="740" y="383" />
              <mxPoint x="740" y="373" />
            </Array>
          </mxGeometry>
        </mxCell>
        <mxCell id="tiuVRjCa3sRhHjP37GoX-55" value="&lt;font style=&quot;font-size: 6px;&quot;&gt;011_out_en&lt;/font&gt;" style="text;html=1;strokeColor=none;fillColor=none;align=right;verticalAlign=middle;whiteSpace=wrap;rounded=0;fontSize=11;fontFamily=Helvetica;fontColor=default;" vertex="1" parent="1">
          <mxGeometry x="690" y="375" width="40" height="10" as="geometry" />
        </mxCell>
        <mxCell id="tiuVRjCa3sRhHjP37GoX-61" style="edgeStyle=orthogonalEdgeStyle;shape=connector;rounded=0;jumpStyle=arc;orthogonalLoop=1;jettySize=auto;html=1;exitX=1;exitY=0.75;exitDx=0;exitDy=0;entryX=0;entryY=0.75;entryDx=0;entryDy=0;labelBackgroundColor=default;strokeColor=default;align=center;verticalAlign=middle;fontFamily=Helvetica;fontSize=11;fontColor=default;endArrow=none;" edge="1" parent="1" source="tiuVRjCa3sRhHjP37GoX-58" target="AD1-2I_FPRvKC91VBRbE-149">
          <mxGeometry relative="1" as="geometry">
            <Array as="points">
              <mxPoint x="860" y="368" />
              <mxPoint x="860" y="362" />
            </Array>
          </mxGeometry>
        </mxCell>
        <mxCell id="tiuVRjCa3sRhHjP37GoX-58" value="&lt;font style=&quot;font-size: 6px;&quot;&gt;100_write_en&lt;/font&gt;" style="text;html=1;strokeColor=none;fillColor=none;align=right;verticalAlign=middle;whiteSpace=wrap;rounded=0;fontSize=11;fontFamily=Helvetica;fontColor=default;" vertex="1" parent="1">
          <mxGeometry x="810" y="360" width="40" height="10" as="geometry" />
        </mxCell>
        <mxCell id="tiuVRjCa3sRhHjP37GoX-60" style="edgeStyle=orthogonalEdgeStyle;shape=connector;rounded=0;jumpStyle=arc;orthogonalLoop=1;jettySize=auto;html=1;exitX=1;exitY=0.75;exitDx=0;exitDy=0;entryX=0;entryY=0.75;entryDx=0;entryDy=0;labelBackgroundColor=default;strokeColor=default;align=center;verticalAlign=middle;fontFamily=Helvetica;fontSize=11;fontColor=default;endArrow=none;" edge="1" parent="1" source="tiuVRjCa3sRhHjP37GoX-59" target="AD1-2I_FPRvKC91VBRbE-151">
          <mxGeometry relative="1" as="geometry">
            <Array as="points">
              <mxPoint x="860" y="382" />
              <mxPoint x="860" y="372" />
            </Array>
          </mxGeometry>
        </mxCell>
        <mxCell id="tiuVRjCa3sRhHjP37GoX-59" value="&lt;font style=&quot;font-size: 6px;&quot;&gt;100_out_en&lt;/font&gt;" style="text;html=1;strokeColor=none;fillColor=none;align=right;verticalAlign=middle;whiteSpace=wrap;rounded=0;fontSize=11;fontFamily=Helvetica;fontColor=default;" vertex="1" parent="1">
          <mxGeometry x="810" y="375" width="40" height="10" as="geometry" />
        </mxCell>
        <mxCell id="tiuVRjCa3sRhHjP37GoX-64" style="edgeStyle=orthogonalEdgeStyle;shape=connector;rounded=0;jumpStyle=arc;orthogonalLoop=1;jettySize=auto;html=1;exitX=1;exitY=0.75;exitDx=0;exitDy=0;entryX=0;entryY=0.75;entryDx=0;entryDy=0;labelBackgroundColor=default;strokeColor=default;align=center;verticalAlign=middle;fontFamily=Helvetica;fontSize=11;fontColor=default;endArrow=none;" edge="1" parent="1" source="tiuVRjCa3sRhHjP37GoX-62" target="AD1-2I_FPRvKC91VBRbE-158">
          <mxGeometry relative="1" as="geometry">
            <Array as="points">
              <mxPoint x="980" y="368" />
              <mxPoint x="980" y="362" />
            </Array>
          </mxGeometry>
        </mxCell>
        <mxCell id="tiuVRjCa3sRhHjP37GoX-62" value="&lt;font style=&quot;font-size: 6px;&quot;&gt;101_write_en&lt;/font&gt;" style="text;html=1;strokeColor=none;fillColor=none;align=right;verticalAlign=middle;whiteSpace=wrap;rounded=0;fontSize=11;fontFamily=Helvetica;fontColor=default;" vertex="1" parent="1">
          <mxGeometry x="930" y="360" width="40" height="10" as="geometry" />
        </mxCell>
        <mxCell id="tiuVRjCa3sRhHjP37GoX-65" style="edgeStyle=orthogonalEdgeStyle;shape=connector;rounded=0;jumpStyle=arc;orthogonalLoop=1;jettySize=auto;html=1;exitX=1;exitY=0.75;exitDx=0;exitDy=0;entryX=0;entryY=0.75;entryDx=0;entryDy=0;labelBackgroundColor=default;strokeColor=default;align=center;verticalAlign=middle;fontFamily=Helvetica;fontSize=11;fontColor=default;endArrow=none;" edge="1" parent="1" source="tiuVRjCa3sRhHjP37GoX-63" target="AD1-2I_FPRvKC91VBRbE-160">
          <mxGeometry relative="1" as="geometry">
            <Array as="points">
              <mxPoint x="980" y="382" />
              <mxPoint x="980" y="372" />
            </Array>
          </mxGeometry>
        </mxCell>
        <mxCell id="tiuVRjCa3sRhHjP37GoX-63" value="&lt;font style=&quot;font-size: 6px;&quot;&gt;101_out_en&lt;/font&gt;" style="text;html=1;strokeColor=none;fillColor=none;align=right;verticalAlign=middle;whiteSpace=wrap;rounded=0;fontSize=11;fontFamily=Helvetica;fontColor=default;" vertex="1" parent="1">
          <mxGeometry x="930" y="375" width="40" height="10" as="geometry" />
        </mxCell>
        <mxCell id="tiuVRjCa3sRhHjP37GoX-68" style="edgeStyle=orthogonalEdgeStyle;shape=connector;rounded=0;jumpStyle=arc;orthogonalLoop=1;jettySize=auto;html=1;exitX=1;exitY=0.75;exitDx=0;exitDy=0;entryX=0;entryY=0.75;entryDx=0;entryDy=0;labelBackgroundColor=default;strokeColor=default;align=center;verticalAlign=middle;fontFamily=Helvetica;fontSize=11;fontColor=default;endArrow=none;" edge="1" parent="1" source="tiuVRjCa3sRhHjP37GoX-66" target="AD1-2I_FPRvKC91VBRbE-166">
          <mxGeometry relative="1" as="geometry">
            <Array as="points">
              <mxPoint x="1100" y="367" />
              <mxPoint x="1100" y="363" />
            </Array>
          </mxGeometry>
        </mxCell>
        <mxCell id="tiuVRjCa3sRhHjP37GoX-66" value="&lt;font style=&quot;font-size: 6px;&quot;&gt;101_write_en&lt;/font&gt;" style="text;html=1;strokeColor=none;fillColor=none;align=right;verticalAlign=middle;whiteSpace=wrap;rounded=0;fontSize=11;fontFamily=Helvetica;fontColor=default;" vertex="1" parent="1">
          <mxGeometry x="1050" y="360" width="40" height="10" as="geometry" />
        </mxCell>
        <mxCell id="tiuVRjCa3sRhHjP37GoX-69" style="edgeStyle=orthogonalEdgeStyle;shape=connector;rounded=0;jumpStyle=arc;orthogonalLoop=1;jettySize=auto;html=1;exitX=1;exitY=0.75;exitDx=0;exitDy=0;entryX=0;entryY=0.75;entryDx=0;entryDy=0;labelBackgroundColor=default;strokeColor=default;align=center;verticalAlign=middle;fontFamily=Helvetica;fontSize=11;fontColor=default;endArrow=none;" edge="1" parent="1" source="tiuVRjCa3sRhHjP37GoX-67" target="AD1-2I_FPRvKC91VBRbE-168">
          <mxGeometry relative="1" as="geometry">
            <Array as="points">
              <mxPoint x="1100" y="383" />
              <mxPoint x="1100" y="373" />
            </Array>
          </mxGeometry>
        </mxCell>
        <mxCell id="tiuVRjCa3sRhHjP37GoX-67" value="&lt;font style=&quot;font-size: 6px;&quot;&gt;101_out_en&lt;/font&gt;" style="text;html=1;strokeColor=none;fillColor=none;align=right;verticalAlign=middle;whiteSpace=wrap;rounded=0;fontSize=11;fontFamily=Helvetica;fontColor=default;" vertex="1" parent="1">
          <mxGeometry x="1050" y="375" width="40" height="10" as="geometry" />
        </mxCell>
        <mxCell id="tiuVRjCa3sRhHjP37GoX-70" value="&lt;font style=&quot;font-size: 6px;&quot;&gt;101_write_en&lt;/font&gt;" style="text;html=1;strokeColor=none;fillColor=none;align=right;verticalAlign=middle;whiteSpace=wrap;rounded=0;fontSize=11;fontFamily=Helvetica;fontColor=default;" vertex="1" parent="1">
          <mxGeometry x="1170" y="360" width="40" height="10" as="geometry" />
        </mxCell>
        <mxCell id="tiuVRjCa3sRhHjP37GoX-71" value="&lt;font style=&quot;font-size: 6px;&quot;&gt;101_out_en&lt;/font&gt;" style="text;html=1;strokeColor=none;fillColor=none;align=right;verticalAlign=middle;whiteSpace=wrap;rounded=0;fontSize=11;fontFamily=Helvetica;fontColor=default;" vertex="1" parent="1">
          <mxGeometry x="1170" y="375" width="40" height="10" as="geometry" />
        </mxCell>
        <mxCell id="tiuVRjCa3sRhHjP37GoX-74" style="edgeStyle=orthogonalEdgeStyle;shape=connector;rounded=0;jumpStyle=arc;orthogonalLoop=1;jettySize=auto;html=1;exitX=0;exitY=0.75;exitDx=0;exitDy=0;entryX=0.46;entryY=0.36;entryDx=0;entryDy=0;entryPerimeter=0;labelBackgroundColor=default;strokeColor=default;align=center;verticalAlign=middle;fontFamily=Helvetica;fontSize=11;fontColor=default;endArrow=none;" edge="1" parent="1" source="AD1-2I_FPRvKC91VBRbE-177" target="AD1-2I_FPRvKC91VBRbE-269">
          <mxGeometry relative="1" as="geometry" />
        </mxCell>
        <mxCell id="tiuVRjCa3sRhHjP37GoX-75" style="edgeStyle=orthogonalEdgeStyle;shape=connector;rounded=0;jumpStyle=none;orthogonalLoop=1;jettySize=auto;html=1;exitX=1;exitY=0.5;exitDx=0;exitDy=0;entryX=0.576;entryY=0.776;entryDx=0;entryDy=0;entryPerimeter=0;labelBackgroundColor=default;strokeColor=default;align=center;verticalAlign=middle;fontFamily=Helvetica;fontSize=11;fontColor=default;endArrow=none;" edge="1" parent="1" source="AD1-2I_FPRvKC91VBRbE-3" target="AD1-2I_FPRvKC91VBRbE-269">
          <mxGeometry relative="1" as="geometry">
            <Array as="points">
              <mxPoint x="1520" y="493" />
              <mxPoint x="1520" y="650" />
              <mxPoint x="1215" y="650" />
            </Array>
          </mxGeometry>
        </mxCell>
        <mxCell id="tiuVRjCa3sRhHjP37GoX-76" style="edgeStyle=orthogonalEdgeStyle;shape=connector;rounded=0;jumpStyle=arc;orthogonalLoop=1;jettySize=auto;html=1;exitX=0;exitY=0.75;exitDx=0;exitDy=0;entryX=1;entryY=0.75;entryDx=0;entryDy=0;labelBackgroundColor=default;strokeColor=default;align=center;verticalAlign=middle;fontFamily=Helvetica;fontSize=11;fontColor=default;endArrow=none;" edge="1" parent="1" source="AD1-2I_FPRvKC91VBRbE-174" target="tiuVRjCa3sRhHjP37GoX-70">
          <mxGeometry relative="1" as="geometry">
            <Array as="points">
              <mxPoint x="1220" y="363" />
              <mxPoint x="1220" y="367" />
            </Array>
          </mxGeometry>
        </mxCell>
        <mxCell id="tiuVRjCa3sRhHjP37GoX-77" style="edgeStyle=orthogonalEdgeStyle;shape=connector;rounded=0;jumpStyle=arc;orthogonalLoop=1;jettySize=auto;html=1;exitX=0;exitY=0.75;exitDx=0;exitDy=0;entryX=1;entryY=0.75;entryDx=0;entryDy=0;labelBackgroundColor=default;strokeColor=default;align=center;verticalAlign=middle;fontFamily=Helvetica;fontSize=11;fontColor=default;endArrow=none;" edge="1" parent="1" source="AD1-2I_FPRvKC91VBRbE-176" target="tiuVRjCa3sRhHjP37GoX-71">
          <mxGeometry relative="1" as="geometry">
            <Array as="points">
              <mxPoint x="1220" y="373" />
              <mxPoint x="1220" y="383" />
            </Array>
          </mxGeometry>
        </mxCell>
        <mxCell id="tiuVRjCa3sRhHjP37GoX-86" style="edgeStyle=orthogonalEdgeStyle;shape=connector;rounded=0;jumpStyle=arc;orthogonalLoop=1;jettySize=auto;html=1;exitX=0.25;exitY=0;exitDx=0;exitDy=0;exitPerimeter=0;entryX=0.5;entryY=1;entryDx=0;entryDy=0;labelBackgroundColor=default;strokeColor=default;align=center;verticalAlign=middle;fontFamily=Helvetica;fontSize=11;fontColor=default;endArrow=none;" edge="1" parent="1" source="tiuVRjCa3sRhHjP37GoX-78" target="tiuVRjCa3sRhHjP37GoX-84">
          <mxGeometry relative="1" as="geometry" />
        </mxCell>
        <mxCell id="tiuVRjCa3sRhHjP37GoX-78" value="" style="rounded=0;whiteSpace=wrap;html=1;points=[[0,0,0,0,0],[0,0.25,0,0,0],[0,0.5,0,0,0],[0,0.75,0,0,0],[0,1,0,0,0],[0.25,0,0,0,0],[0.25,1,0,0,0],[0.5,0,0,0,0],[0.5,1,0,0,0],[0.75,0,0,0,0],[0.75,1,0,0,0],[1,0,0,0,0],[1,0.15,0,0,0],[1,0.3,0,0,0],[1,0.45,0,0,0],[1,0.59,0,0,0],[1,0.72,0,0,0],[1,0.86,0,0,0],[1,1,0,0,0]];" vertex="1" parent="1">
          <mxGeometry x="690" y="454.38" width="140" height="105.62" as="geometry" />
        </mxCell>
        <mxCell id="tiuVRjCa3sRhHjP37GoX-79" style="edgeStyle=orthogonalEdgeStyle;shape=connector;rounded=0;jumpStyle=arc;orthogonalLoop=1;jettySize=auto;html=1;exitX=1;exitY=0.75;exitDx=0;exitDy=0;labelBackgroundColor=default;strokeColor=default;align=center;verticalAlign=middle;fontFamily=Helvetica;fontSize=11;fontColor=default;endArrow=none;" edge="1" parent="1" source="AD1-2I_FPRvKC91VBRbE-113">
          <mxGeometry relative="1" as="geometry">
            <mxPoint x="710" y="614.38" as="targetPoint" />
          </mxGeometry>
        </mxCell>
        <mxCell id="tiuVRjCa3sRhHjP37GoX-80" value="" style="shape=waypoint;sketch=0;fillStyle=solid;size=6;pointerEvents=1;points=[];fillColor=none;resizable=0;rotatable=0;perimeter=centerPerimeter;snapToPoint=1;fontFamily=Helvetica;fontSize=11;fontColor=default;" vertex="1" parent="1">
          <mxGeometry x="700" y="602" width="20" height="20" as="geometry" />
        </mxCell>
        <mxCell id="tiuVRjCa3sRhHjP37GoX-81" value="Register Read Write Select" style="text;html=1;strokeColor=none;fillColor=none;align=center;verticalAlign=middle;whiteSpace=wrap;rounded=0;fontSize=11;fontFamily=Helvetica;fontColor=default;" vertex="1" parent="1">
          <mxGeometry x="690" y="525" width="90" height="30" as="geometry" />
        </mxCell>
        <mxCell id="tiuVRjCa3sRhHjP37GoX-83" style="edgeStyle=orthogonalEdgeStyle;shape=connector;rounded=0;jumpStyle=arc;orthogonalLoop=1;jettySize=auto;html=1;exitX=1;exitY=0.75;exitDx=0;exitDy=0;entryX=0;entryY=0.25;entryDx=0;entryDy=0;entryPerimeter=0;labelBackgroundColor=default;strokeColor=default;align=center;verticalAlign=middle;fontFamily=Helvetica;fontSize=11;fontColor=default;endArrow=none;" edge="1" parent="1" source="tiuVRjCa3sRhHjP37GoX-7" target="tiuVRjCa3sRhHjP37GoX-78">
          <mxGeometry relative="1" as="geometry" />
        </mxCell>
        <mxCell id="tiuVRjCa3sRhHjP37GoX-84" value="&lt;span style=&quot;font-size: 7px;&quot;&gt;XXX_write_en&lt;/span&gt;" style="text;html=1;strokeColor=none;fillColor=none;align=center;verticalAlign=middle;whiteSpace=wrap;rounded=0;fontSize=11;fontFamily=Helvetica;fontColor=default;" vertex="1" parent="1">
          <mxGeometry x="700" y="435" width="50" height="10" as="geometry" />
        </mxCell>
        <mxCell id="tiuVRjCa3sRhHjP37GoX-85" value="&lt;span style=&quot;font-size: 7px;&quot;&gt;XXX_read_en&lt;/span&gt;" style="text;html=1;strokeColor=none;fillColor=none;align=center;verticalAlign=middle;whiteSpace=wrap;rounded=0;fontSize=11;fontFamily=Helvetica;fontColor=default;" vertex="1" parent="1">
          <mxGeometry x="770.5" y="435" width="49" height="10" as="geometry" />
        </mxCell>
        <mxCell id="tiuVRjCa3sRhHjP37GoX-87" style="edgeStyle=orthogonalEdgeStyle;shape=connector;rounded=0;jumpStyle=arc;orthogonalLoop=1;jettySize=auto;html=1;exitX=0.5;exitY=1;exitDx=0;exitDy=0;entryX=0.75;entryY=0;entryDx=0;entryDy=0;entryPerimeter=0;labelBackgroundColor=default;strokeColor=default;align=center;verticalAlign=middle;fontFamily=Helvetica;fontSize=11;fontColor=default;endArrow=none;" edge="1" parent="1" source="tiuVRjCa3sRhHjP37GoX-85" target="tiuVRjCa3sRhHjP37GoX-78">
          <mxGeometry relative="1" as="geometry" />
        </mxCell>
        <mxCell id="tiuVRjCa3sRhHjP37GoX-88" style="edgeStyle=orthogonalEdgeStyle;shape=connector;rounded=0;jumpStyle=arc;orthogonalLoop=1;jettySize=auto;html=1;exitX=0;exitY=0.25;exitDx=0;exitDy=0;exitPerimeter=0;entryX=1;entryY=0.15;entryDx=0;entryDy=0;entryPerimeter=0;labelBackgroundColor=default;strokeColor=default;align=center;verticalAlign=middle;fontFamily=Helvetica;fontSize=11;fontColor=default;endArrow=none;" edge="1" parent="1" source="tiuVRjCa3sRhHjP37GoX-9" target="tiuVRjCa3sRhHjP37GoX-78">
          <mxGeometry relative="1" as="geometry">
            <Array as="points">
              <mxPoint x="840" y="484" />
              <mxPoint x="840" y="470" />
            </Array>
          </mxGeometry>
        </mxCell>
        <mxCell id="tiuVRjCa3sRhHjP37GoX-89" value="&lt;font style=&quot;font-size: 6px;&quot;&gt;write_en&lt;/font&gt;" style="text;html=1;strokeColor=none;fillColor=none;align=center;verticalAlign=bottom;whiteSpace=wrap;rounded=0;fontSize=11;fontFamily=Helvetica;fontColor=default;" vertex="1" parent="1">
          <mxGeometry x="860" y="480.62" width="30" height="9" as="geometry" />
        </mxCell>
        <mxCell id="tiuVRjCa3sRhHjP37GoX-92" style="edgeStyle=orthogonalEdgeStyle;shape=connector;rounded=0;jumpStyle=arc;orthogonalLoop=1;jettySize=auto;html=1;exitX=0;exitY=0.75;exitDx=0;exitDy=0;entryX=1;entryY=0.75;entryDx=0;entryDy=0;labelBackgroundColor=default;strokeColor=default;align=center;verticalAlign=middle;fontFamily=Helvetica;fontSize=11;fontColor=default;endArrow=none;" edge="1" parent="1" source="tiuVRjCa3sRhHjP37GoX-91" target="tiuVRjCa3sRhHjP37GoX-8">
          <mxGeometry relative="1" as="geometry">
            <Array as="points">
              <mxPoint x="850" y="558" />
              <mxPoint x="850" y="570" />
              <mxPoint x="670" y="570" />
              <mxPoint x="670" y="528" />
            </Array>
          </mxGeometry>
        </mxCell>
        <mxCell id="tiuVRjCa3sRhHjP37GoX-91" value="&lt;font style=&quot;font-size: 6px;&quot;&gt;opcode[3:0]&lt;/font&gt;" style="text;html=1;strokeColor=none;fillColor=none;align=center;verticalAlign=middle;whiteSpace=wrap;rounded=0;fontSize=11;fontFamily=Helvetica;fontColor=default;" vertex="1" parent="1">
          <mxGeometry x="860" y="550.62" width="40" height="9.38" as="geometry" />
        </mxCell>
        <mxCell id="tiuVRjCa3sRhHjP37GoX-93" value="&lt;font style=&quot;font-size: 6px;&quot;&gt;Generate other control signals&lt;/font&gt;" style="text;html=1;strokeColor=none;fillColor=none;align=center;verticalAlign=middle;whiteSpace=wrap;rounded=0;fontSize=11;fontFamily=Helvetica;fontColor=default;spacing=0;" vertex="1" parent="1">
          <mxGeometry x="930" y="455.99" width="50" height="24.63" as="geometry" />
        </mxCell>
        <mxCell id="tiuVRjCa3sRhHjP37GoX-95" value="&lt;font style=&quot;font-size: 9px;&quot;&gt;alu_b_sel&lt;/font&gt;" style="text;html=1;strokeColor=none;fillColor=none;align=center;verticalAlign=middle;whiteSpace=wrap;rounded=0;fontSize=11;fontFamily=Helvetica;fontColor=default;" vertex="1" parent="1">
          <mxGeometry x="1340" y="586.26" width="50" height="15" as="geometry" />
        </mxCell>
        <mxCell id="tiuVRjCa3sRhHjP37GoX-97" value="RAM&lt;br style=&quot;border-color: var(--border-color); font-size: 12px;&quot;&gt;&lt;span style=&quot;font-size: 12px;&quot;&gt;256 bytes&lt;/span&gt;" style="text;html=1;strokeColor=none;fillColor=none;align=center;verticalAlign=middle;whiteSpace=wrap;rounded=0;fontSize=11;fontFamily=Helvetica;fontColor=default;" vertex="1" parent="1">
          <mxGeometry x="400" y="590" width="60" height="30" as="geometry" />
        </mxCell>
        <mxCell id="tiuVRjCa3sRhHjP37GoX-98" style="edgeStyle=orthogonalEdgeStyle;shape=connector;rounded=0;jumpStyle=arc;orthogonalLoop=1;jettySize=auto;html=1;exitX=0;exitY=0.5;exitDx=0;exitDy=0;entryX=0.539;entryY=0.7;entryDx=0;entryDy=0;entryPerimeter=0;labelBackgroundColor=default;strokeColor=default;align=center;verticalAlign=middle;fontFamily=Helvetica;fontSize=11;fontColor=default;endArrow=none;" edge="1" parent="1" source="AD1-2I_FPRvKC91VBRbE-231" target="tiuVRjCa3sRhHjP37GoX-80">
          <mxGeometry relative="1" as="geometry">
            <Array as="points">
              <mxPoint x="350" y="531" />
              <mxPoint x="350" y="720" />
              <mxPoint x="720" y="720" />
              <mxPoint x="720" y="612" />
            </Array>
          </mxGeometry>
        </mxCell>
        <mxCell id="tiuVRjCa3sRhHjP37GoX-101" value="" style="shape=waypoint;sketch=0;fillStyle=solid;size=6;pointerEvents=1;points=[];fillColor=none;resizable=0;rotatable=0;perimeter=centerPerimeter;snapToPoint=1;fontFamily=Helvetica;fontSize=11;fontColor=default;" vertex="1" parent="1">
          <mxGeometry x="510.03" y="586.26" width="20" height="20" as="geometry" />
        </mxCell>
        <mxCell id="tiuVRjCa3sRhHjP37GoX-102" style="edgeStyle=orthogonalEdgeStyle;shape=connector;rounded=0;jumpStyle=arc;orthogonalLoop=1;jettySize=auto;html=1;exitX=0.25;exitY=1;exitDx=0;exitDy=0;entryX=0.614;entryY=0.416;entryDx=0;entryDy=0;entryPerimeter=0;labelBackgroundColor=default;strokeColor=default;align=center;verticalAlign=middle;fontFamily=Helvetica;fontSize=11;fontColor=default;endArrow=none;" edge="1" parent="1" source="tLDN3tM3W0mny_JlB2la-13" target="tiuVRjCa3sRhHjP37GoX-101">
          <mxGeometry relative="1" as="geometry" />
        </mxCell>
        <mxCell id="tiuVRjCa3sRhHjP37GoX-103" value="" style="shape=waypoint;sketch=0;fillStyle=solid;size=6;pointerEvents=1;points=[];fillColor=none;resizable=0;rotatable=0;perimeter=centerPerimeter;snapToPoint=1;fontFamily=Helvetica;fontSize=11;fontColor=default;" vertex="1" parent="1">
          <mxGeometry x="510.03" y="690" width="20" height="20" as="geometry" />
        </mxCell>
        <mxCell id="tiuVRjCa3sRhHjP37GoX-106" value="" style="endArrow=none;html=1;rounded=0;labelBackgroundColor=default;strokeColor=default;align=center;verticalAlign=middle;fontFamily=Helvetica;fontSize=11;fontColor=default;shape=connector;edgeStyle=orthogonalEdgeStyle;jumpStyle=arc;" edge="1" parent="1" source="tiuVRjCa3sRhHjP37GoX-103" target="tiuVRjCa3sRhHjP37GoX-101">
          <mxGeometry width="50" height="50" relative="1" as="geometry">
            <mxPoint x="550" y="670" as="sourcePoint" />
            <mxPoint x="600" y="620" as="targetPoint" />
          </mxGeometry>
        </mxCell>
        <mxCell id="tiuVRjCa3sRhHjP37GoX-107" value="" style="shape=waypoint;sketch=0;fillStyle=solid;size=6;pointerEvents=1;points=[];fillColor=none;resizable=0;rotatable=0;perimeter=centerPerimeter;snapToPoint=1;fontFamily=Helvetica;fontSize=11;fontColor=default;" vertex="1" parent="1">
          <mxGeometry x="690" y="640" width="20" height="20" as="geometry" />
        </mxCell>
        <mxCell id="tiuVRjCa3sRhHjP37GoX-110" style="edgeStyle=orthogonalEdgeStyle;shape=connector;rounded=0;jumpStyle=arc;orthogonalLoop=1;jettySize=auto;html=1;exitX=0.75;exitY=1;exitDx=0;exitDy=0;labelBackgroundColor=default;strokeColor=default;align=center;verticalAlign=middle;fontFamily=Helvetica;fontSize=11;fontColor=default;endArrow=none;" edge="1" parent="1" source="AD1-2I_FPRvKC91VBRbE-2" target="tiuVRjCa3sRhHjP37GoX-107">
          <mxGeometry relative="1" as="geometry">
            <Array as="points">
              <mxPoint x="1380" y="536" />
              <mxPoint x="1380" y="550" />
              <mxPoint x="1020" y="550" />
              <mxPoint x="1020" y="650" />
            </Array>
          </mxGeometry>
        </mxCell>
      </root>
    </mxGraphModel>
  </diagram>
</mxfile>
